G04 PROTEUS RS274X GERBER FILE*
%FSLAX45Y45*%
%MOMM*%
G01*
%ADD10C,0.508000*%
%ADD11C,1.270000*%
%ADD17C,0.254000*%
%ADD12R,1.270000X1.270000*%
%ADD13R,1.524000X1.524000*%
%ADD14C,1.524000*%
%ADD15R,1.905000X1.905000*%
%ADD16C,0.203200*%
G36*
X+3439040Y-2689040D02*
X-3189040Y-2689040D01*
X-3189040Y+3689040D01*
X+3439040Y+3689040D01*
X+3439040Y-2689040D01*
G37*
%LPC*%
G36*
X-1127701Y+3036701D02*
X-614299Y+2523299D01*
X-614299Y+2614299D01*
X-385701Y+2614299D01*
X-385701Y+2385701D01*
X-476701Y+2385701D01*
X-423801Y+2332801D01*
X-423801Y+2331444D01*
X-385701Y+2293344D01*
X-385701Y+2198656D01*
X-452656Y+2131701D01*
X-547344Y+2131701D01*
X-614299Y+2198656D01*
X-614299Y+2293344D01*
X-607082Y+2300562D01*
X-1127701Y+2821181D01*
X-1127701Y+2775889D01*
X-640740Y+2288928D01*
X-640740Y+1986500D01*
X-614299Y+1960059D01*
X-614299Y+2039344D01*
X-547344Y+2106299D01*
X-452656Y+2106299D01*
X-385701Y+2039344D01*
X-385701Y+1944656D01*
X-452656Y+1877701D01*
X-531941Y+1877701D01*
X-506539Y+1852299D01*
X-452656Y+1852299D01*
X-385701Y+1785344D01*
X-385701Y+1690656D01*
X-452656Y+1623701D01*
X-547344Y+1623701D01*
X-614299Y+1690656D01*
X-614299Y+1744539D01*
X-735651Y+1865891D01*
X-735651Y+1573411D01*
X-614299Y+1452059D01*
X-614299Y+1531344D01*
X-547344Y+1598299D01*
X-452656Y+1598299D01*
X-385701Y+1531344D01*
X-385701Y+1436656D01*
X-452656Y+1369701D01*
X-531941Y+1369701D01*
X-506539Y+1344299D01*
X-452656Y+1344299D01*
X-385701Y+1277344D01*
X-385701Y+1182656D01*
X-452656Y+1115701D01*
X-531941Y+1115701D01*
X-506539Y+1090299D01*
X-452656Y+1090299D01*
X-385701Y+1023344D01*
X-385701Y+928656D01*
X-452656Y+861701D01*
X-547344Y+861701D01*
X-614299Y+928656D01*
X-614299Y+982539D01*
X-1100141Y+1468381D01*
X-1354604Y+1468381D01*
X-1354604Y+1292550D01*
X-2266155Y+380999D01*
X-2123001Y+380999D01*
X-2123001Y+127001D01*
X-2376999Y+127001D01*
X-2376999Y+273239D01*
X-2439801Y+336041D01*
X-2439801Y+4932D01*
X-2376999Y-57870D01*
X-2376999Y+126999D01*
X-2123001Y+126999D01*
X-2123001Y-126999D01*
X-2307870Y-126999D01*
X-2307868Y-127001D01*
X-2123001Y-127001D01*
X-2123001Y-380999D01*
X-2376999Y-380999D01*
X-2376999Y-273390D01*
X-2592199Y-58190D01*
X-2592199Y+646595D01*
X-2642999Y+697395D01*
X-2642999Y+802605D01*
X-2576199Y+869405D01*
X-2576199Y+1172151D01*
X-2646049Y+1172151D01*
X-2646049Y+1464249D01*
X-2353951Y+1464249D01*
X-2353951Y+1394399D01*
X-1853405Y+1394399D01*
X-1802605Y+1445199D01*
X-1697395Y+1445199D01*
X-1623001Y+1370805D01*
X-1623001Y+1265595D01*
X-1697395Y+1191201D01*
X-1802605Y+1191201D01*
X-1853405Y+1242001D01*
X-2353951Y+1242001D01*
X-2353951Y+1172151D01*
X-2423801Y+1172151D01*
X-2423801Y+837405D01*
X-2389001Y+802605D01*
X-2389001Y+697395D01*
X-2439801Y+646595D01*
X-2439801Y+422873D01*
X-1507002Y+1355672D01*
X-1507002Y+1487593D01*
X-1532426Y+1513017D01*
X-1532426Y+1513019D01*
X-1623001Y+1603594D01*
X-1623001Y+1519595D01*
X-1697395Y+1445201D01*
X-1802605Y+1445201D01*
X-1876999Y+1519595D01*
X-1876999Y+1624805D01*
X-1802605Y+1699199D01*
X-1718606Y+1699199D01*
X-1828651Y+1809244D01*
X-1828653Y+1809244D01*
X-1873289Y+1853880D01*
X-1873289Y+2004930D01*
X-1828653Y+2049566D01*
X-1828651Y+2049566D01*
X-1610299Y+2267918D01*
X-1610299Y+2364299D01*
X-1381701Y+2364299D01*
X-1381701Y+2135701D01*
X-1526996Y+2135701D01*
X-1552398Y+2110299D01*
X-1381701Y+2110299D01*
X-1381701Y+1881701D01*
X-1610299Y+1881701D01*
X-1610299Y+2052398D01*
X-1720891Y+1941806D01*
X-1720891Y+1917004D01*
X-1424666Y+1620779D01*
X-1037019Y+1620779D01*
X-614299Y+1198059D01*
X-614299Y+1236539D01*
X-888049Y+1510289D01*
X-888049Y+2180610D01*
X-1127701Y+2420262D01*
X-1127701Y+2389701D01*
X-1356299Y+2389701D01*
X-1356299Y+2618299D01*
X-1185631Y+2618299D01*
X-1211033Y+2643701D01*
X-1356299Y+2643701D01*
X-1356299Y+2872299D01*
X-1178819Y+2872299D01*
X-1204221Y+2897701D01*
X-1356299Y+2897701D01*
X-1356299Y+3126299D01*
X-1127701Y+3126299D01*
X-1127701Y+3036701D01*
G37*
G36*
X-547344Y+836299D02*
X-452656Y+836299D01*
X-385701Y+769344D01*
X-385701Y+674656D01*
X-452656Y+607701D01*
X-547344Y+607701D01*
X-614299Y+674656D01*
X-614299Y+769344D01*
X-547344Y+836299D01*
G37*
G36*
X-547344Y+582299D02*
X-452656Y+582299D01*
X-385701Y+515344D01*
X-385701Y+420656D01*
X-452656Y+353701D01*
X-547344Y+353701D01*
X-614299Y+420656D01*
X-614299Y+515344D01*
X-547344Y+582299D01*
G37*
G36*
X+2880999Y+2060199D02*
X+2999645Y+2060199D01*
X+3128462Y+1931382D01*
X+3128462Y-197573D01*
X+2707034Y-619001D01*
X+2880999Y-619001D01*
X+2880999Y-872999D01*
X+2627001Y-872999D01*
X+2627001Y-699034D01*
X+2626999Y-699036D01*
X+2626999Y-872999D01*
X+2457241Y-872999D01*
X+2457243Y-873001D01*
X+2626999Y-873001D01*
X+2626999Y-1126999D01*
X+2373001Y-1126999D01*
X+2373001Y-1004279D01*
X+1715847Y-347125D01*
X+1132518Y-347125D01*
X+1071344Y-408299D01*
X+976656Y-408299D01*
X+909701Y-341344D01*
X+909701Y-246656D01*
X+913832Y-242525D01*
X-151235Y-242525D01*
X-385701Y-8059D01*
X-385701Y-87344D01*
X-452656Y-154299D01*
X-547344Y-154299D01*
X-614299Y-87344D01*
X-614299Y+7344D01*
X-547344Y+74299D01*
X-468059Y+74299D01*
X-493461Y+99701D01*
X-547344Y+99701D01*
X-573444Y+125801D01*
X-1719697Y+125801D01*
X-1573501Y-20395D01*
X-1519618Y-20395D01*
X-1452663Y-87350D01*
X-1452663Y-182038D01*
X-1519618Y-248993D01*
X-1614306Y-248993D01*
X-1681261Y-182038D01*
X-1681261Y-128155D01*
X-1869001Y+59585D01*
X-1869001Y-126999D01*
X-2122999Y-126999D01*
X-2122999Y+126999D01*
X-1976759Y+126999D01*
X-1976761Y+127001D01*
X-2122999Y+127001D01*
X-2122999Y+380999D01*
X-1976761Y+380999D01*
X-1626999Y+730761D01*
X-1626999Y+802605D01*
X-1552605Y+876999D01*
X-1447395Y+876999D01*
X-1373001Y+802605D01*
X-1373001Y+697395D01*
X-1447395Y+623001D01*
X-1519239Y+623001D01*
X-1864041Y+278199D01*
X-597444Y+278199D01*
X-547344Y+328299D01*
X-452656Y+328299D01*
X-385701Y+261344D01*
X-385701Y+207461D01*
X-88113Y-90127D01*
X+912484Y-90127D01*
X+909701Y-87344D01*
X+909701Y+7344D01*
X+976656Y+74299D01*
X+1030539Y+74299D01*
X+1055941Y+99701D01*
X+976656Y+99701D01*
X+909701Y+166656D01*
X+909701Y+261344D01*
X+976656Y+328299D01*
X+1071344Y+328299D01*
X+1138299Y+261344D01*
X+1138299Y+182059D01*
X+1524439Y+568199D01*
X+2623001Y+568199D01*
X+2623001Y+618999D01*
X+2876999Y+618999D01*
X+2876999Y+365001D01*
X+2623001Y+365001D01*
X+2623001Y+415801D01*
X+1587561Y+415801D01*
X+1138299Y-33461D01*
X+1138299Y-87344D01*
X+1135516Y-90127D01*
X+2066006Y-90127D01*
X+2543197Y-567318D01*
X+2976064Y-134451D01*
X+2976064Y+1868260D01*
X+2936523Y+1907801D01*
X+2880999Y+1907801D01*
X+2880999Y+1857001D01*
X+2627001Y+1857001D01*
X+2627001Y+2110999D01*
X+2880999Y+2110999D01*
X+2880999Y+2060199D01*
G37*
G36*
X-547344Y-179701D02*
X-452656Y-179701D01*
X-385701Y-246656D01*
X-385701Y-341344D01*
X-452656Y-408299D01*
X-547344Y-408299D01*
X-614299Y-341344D01*
X-614299Y-246656D01*
X-547344Y-179701D01*
G37*
G36*
X-547344Y-433701D02*
X-452656Y-433701D01*
X-385701Y-500656D01*
X-385701Y-595344D01*
X-452656Y-662299D01*
X-547344Y-662299D01*
X-614299Y-595344D01*
X-614299Y-500656D01*
X-547344Y-433701D01*
G37*
G36*
X-385701Y-754656D02*
X-385701Y-849344D01*
X-452656Y-916299D01*
X-506539Y-916299D01*
X-531941Y-941701D01*
X-452656Y-941701D01*
X-385701Y-1008656D01*
X-385701Y-1103344D01*
X-452656Y-1170299D01*
X-547344Y-1170299D01*
X-585444Y-1132199D01*
X-1274439Y-1132199D01*
X-1369001Y-1226761D01*
X-1369001Y-1372999D01*
X-1622999Y-1372999D01*
X-1622999Y-1119001D01*
X-1476761Y-1119001D01*
X-1346320Y-988560D01*
X-1362965Y-988560D01*
X-1429920Y-921605D01*
X-1429920Y-826917D01*
X-1362965Y-759962D01*
X-1268277Y-759962D01*
X-1230177Y-798062D01*
X-614299Y-798062D01*
X-614299Y-754656D01*
X-547344Y-687701D01*
X-452656Y-687701D01*
X-385701Y-754656D01*
G37*
G36*
X-547344Y-1195701D02*
X-452656Y-1195701D01*
X-385701Y-1262656D01*
X-385701Y-1357344D01*
X-452656Y-1424299D01*
X-547344Y-1424299D01*
X-614299Y-1357344D01*
X-614299Y-1262656D01*
X-547344Y-1195701D01*
G37*
G36*
X-1369001Y-1487801D02*
X-585444Y-1487801D01*
X-547344Y-1449701D01*
X-452656Y-1449701D01*
X-385701Y-1516656D01*
X-385701Y-1611344D01*
X-452656Y-1678299D01*
X-547344Y-1678299D01*
X-585444Y-1640199D01*
X-1369001Y-1640199D01*
X-1369001Y-1737730D01*
X-1110930Y-1995801D01*
X-585444Y-1995801D01*
X-547344Y-1957701D01*
X-452656Y-1957701D01*
X-385701Y-2024656D01*
X-385701Y-2119344D01*
X-405533Y-2139176D01*
X-369305Y-2139176D01*
X-258680Y-2249801D01*
X+938556Y-2249801D01*
X+976656Y-2211701D01*
X+1071344Y-2211701D01*
X+1138299Y-2278656D01*
X+1138299Y-2373344D01*
X+1071344Y-2440299D01*
X+976656Y-2440299D01*
X+938556Y-2402199D01*
X-321802Y-2402199D01*
X-385701Y-2338300D01*
X-385701Y-2373344D01*
X-452656Y-2440299D01*
X-506539Y-2440299D01*
X-632227Y-2565987D01*
X-1947681Y-2565987D01*
X-2115517Y-2398151D01*
X-2115517Y-2156783D01*
X-1890535Y-1931801D01*
X-1876999Y-1931801D01*
X-1876999Y-1881001D01*
X-1623001Y-1881001D01*
X-1623001Y-2134999D01*
X-1876999Y-2134999D01*
X-1876999Y-2133785D01*
X-1963119Y-2219905D01*
X-1963119Y-2335029D01*
X-1884559Y-2413589D01*
X-695349Y-2413589D01*
X-614299Y-2332539D01*
X-614299Y-2286628D01*
X-1291301Y-2286628D01*
X-1369001Y-2208928D01*
X-1369001Y-2388999D01*
X-1622999Y-2388999D01*
X-1622999Y-2135001D01*
X-1442928Y-2135001D01*
X-1442930Y-2134999D01*
X-1622999Y-2134999D01*
X-1622999Y-1881001D01*
X-1441250Y-1881001D01*
X-1441252Y-1880999D01*
X-1622999Y-1880999D01*
X-1622999Y-1627001D01*
X-1476759Y-1627001D01*
X-1476761Y-1626999D01*
X-1622999Y-1626999D01*
X-1622999Y-1373001D01*
X-1369001Y-1373001D01*
X-1369001Y-1487801D01*
G37*
G36*
X-547344Y-1703701D02*
X-452656Y-1703701D01*
X-385701Y-1770656D01*
X-385701Y-1865344D01*
X-452656Y-1932299D01*
X-547344Y-1932299D01*
X-614299Y-1865344D01*
X-614299Y-1770656D01*
X-547344Y-1703701D01*
G37*
G36*
X+2880999Y-1888999D02*
X+2782987Y-1888999D01*
X+2523787Y-2148199D01*
X+1109444Y-2148199D01*
X+1071344Y-2186299D01*
X+976656Y-2186299D01*
X+909701Y-2119344D01*
X+909701Y-2024656D01*
X+976656Y-1957701D01*
X+1071344Y-1957701D01*
X+1109444Y-1995801D01*
X+2460665Y-1995801D01*
X+2567467Y-1888999D01*
X+2373001Y-1888999D01*
X+2373001Y-1838199D01*
X+1138299Y-1838199D01*
X+1138299Y-1865344D01*
X+1071344Y-1932299D01*
X+976656Y-1932299D01*
X+909701Y-1865344D01*
X+909701Y-1770656D01*
X+976656Y-1703701D01*
X+1030539Y-1703701D01*
X+1048439Y-1685801D01*
X+2373001Y-1685801D01*
X+2373001Y-1635001D01*
X+2626999Y-1635001D01*
X+2626999Y-1829467D01*
X+2627001Y-1829465D01*
X+2627001Y-1635001D01*
X+2880999Y-1635001D01*
X+2880999Y-1888999D01*
G37*
G36*
X+1071344Y-1678299D02*
X+976656Y-1678299D01*
X+909701Y-1611344D01*
X+909701Y-1516656D01*
X+976656Y-1449701D01*
X+1071344Y-1449701D01*
X+1138299Y-1516656D01*
X+1138299Y-1611344D01*
X+1071344Y-1678299D01*
G37*
G36*
X+1101565Y-1225922D02*
X+1807947Y-1225922D01*
X+2013826Y-1431801D01*
X+2373001Y-1431801D01*
X+2373001Y-1381001D01*
X+2626999Y-1381001D01*
X+2626999Y-1634999D01*
X+2373001Y-1634999D01*
X+2373001Y-1584199D01*
X+1950704Y-1584199D01*
X+1744825Y-1378320D01*
X+1117323Y-1378320D01*
X+1071344Y-1424299D01*
X+976656Y-1424299D01*
X+909701Y-1357344D01*
X+909701Y-1262656D01*
X+976656Y-1195701D01*
X+1071344Y-1195701D01*
X+1101565Y-1225922D01*
G37*
G36*
X+1071344Y-1170299D02*
X+976656Y-1170299D01*
X+909701Y-1103344D01*
X+909701Y-1008656D01*
X+976656Y-941701D01*
X+1071344Y-941701D01*
X+1138299Y-1008656D01*
X+1138299Y-1103344D01*
X+1071344Y-1170299D01*
G37*
G36*
X+1130812Y-747169D02*
X+1838171Y-747169D01*
X+2268803Y-1177801D01*
X+2373001Y-1177801D01*
X+2373001Y-1127001D01*
X+2626999Y-1127001D01*
X+2626999Y-1380999D01*
X+2373001Y-1380999D01*
X+2373001Y-1330199D01*
X+2205681Y-1330199D01*
X+1775049Y-899567D01*
X+1088076Y-899567D01*
X+1071344Y-916299D01*
X+976656Y-916299D01*
X+909701Y-849344D01*
X+909701Y-754656D01*
X+976656Y-687701D01*
X+1071344Y-687701D01*
X+1130812Y-747169D01*
G37*
G36*
X+1071344Y-662299D02*
X+976656Y-662299D01*
X+909701Y-595344D01*
X+909701Y-500656D01*
X+976656Y-433701D01*
X+1071344Y-433701D01*
X+1138299Y-500656D01*
X+1138299Y-595344D01*
X+1071344Y-662299D01*
G37*
G36*
X+2876999Y+873001D02*
X+2623001Y+873001D01*
X+2623001Y+923801D01*
X+1587561Y+923801D01*
X+1138299Y+474539D01*
X+1138299Y+420656D01*
X+1071344Y+353701D01*
X+976656Y+353701D01*
X+909701Y+420656D01*
X+909701Y+515344D01*
X+976656Y+582299D01*
X+1030539Y+582299D01*
X+1055941Y+607701D01*
X+976656Y+607701D01*
X+909701Y+674656D01*
X+909701Y+769344D01*
X+976656Y+836299D01*
X+1071344Y+836299D01*
X+1138299Y+769344D01*
X+1138299Y+690059D01*
X+1524439Y+1076199D01*
X+2623001Y+1076199D01*
X+2623001Y+1126999D01*
X+2876999Y+1126999D01*
X+2876999Y+873001D01*
G37*
G36*
X+2626999Y+2111001D02*
X+2373001Y+2111001D01*
X+2373001Y+2161801D01*
X+2317561Y+2161801D01*
X+1138299Y+982539D01*
X+1138299Y+928656D01*
X+1071344Y+861701D01*
X+976656Y+861701D01*
X+909701Y+928656D01*
X+909701Y+1023344D01*
X+976656Y+1090299D01*
X+1030539Y+1090299D01*
X+1055941Y+1115701D01*
X+976656Y+1115701D01*
X+909701Y+1182656D01*
X+909701Y+1277344D01*
X+976656Y+1344299D01*
X+1071344Y+1344299D01*
X+1138299Y+1277344D01*
X+1138299Y+1198059D01*
X+2254439Y+2314199D01*
X+2373001Y+2314199D01*
X+2373001Y+2364999D01*
X+2626999Y+2364999D01*
X+2626999Y+2111001D01*
G37*
G36*
X+2626999Y+2365001D02*
X+2373001Y+2365001D01*
X+2373001Y+2415801D01*
X+2063561Y+2415801D01*
X+1138299Y+1490539D01*
X+1138299Y+1436656D01*
X+1071344Y+1369701D01*
X+976656Y+1369701D01*
X+909701Y+1436656D01*
X+909701Y+1531344D01*
X+976656Y+1598299D01*
X+1030539Y+1598299D01*
X+1055941Y+1623701D01*
X+976656Y+1623701D01*
X+909701Y+1690656D01*
X+909701Y+1785344D01*
X+976656Y+1852299D01*
X+1071344Y+1852299D01*
X+1138299Y+1785344D01*
X+1138299Y+1706059D01*
X+2000439Y+2568199D01*
X+2373001Y+2568199D01*
X+2373001Y+2618999D01*
X+2626999Y+2618999D01*
X+2626999Y+2365001D01*
G37*
G36*
X+2626999Y+2619001D02*
X+2373001Y+2619001D01*
X+2373001Y+2669801D01*
X+1809561Y+2669801D01*
X+1138299Y+1998539D01*
X+1138299Y+1944656D01*
X+1071344Y+1877701D01*
X+976656Y+1877701D01*
X+909701Y+1944656D01*
X+909701Y+2039344D01*
X+976656Y+2106299D01*
X+1030539Y+2106299D01*
X+1055941Y+2131701D01*
X+976656Y+2131701D01*
X+909701Y+2198656D01*
X+909701Y+2293344D01*
X+976656Y+2360299D01*
X+1071344Y+2360299D01*
X+1138299Y+2293344D01*
X+1138299Y+2214059D01*
X+1746439Y+2822199D01*
X+2373001Y+2822199D01*
X+2373001Y+2872999D01*
X+2626999Y+2872999D01*
X+2626999Y+2619001D01*
G37*
G36*
X+2626999Y+2873001D02*
X+2373001Y+2873001D01*
X+2373001Y+2923801D01*
X+1555561Y+2923801D01*
X+1138299Y+2506539D01*
X+1138299Y+2452656D01*
X+1071344Y+2385701D01*
X+976656Y+2385701D01*
X+909701Y+2452656D01*
X+909701Y+2547344D01*
X+976656Y+2614299D01*
X+1030539Y+2614299D01*
X+1492439Y+3076199D01*
X+2373001Y+3076199D01*
X+2373001Y+3126999D01*
X+2626999Y+3126999D01*
X+2626999Y+2873001D01*
G37*
G36*
X-1381701Y+3126299D02*
X-1381701Y+2897701D01*
X-1610299Y+2897701D01*
X-1610299Y+3126299D01*
X-1381701Y+3126299D01*
G37*
G36*
X-1381701Y+2872299D02*
X-1381701Y+2643701D01*
X-1610299Y+2643701D01*
X-1610299Y+2872299D01*
X-1381701Y+2872299D01*
G37*
G36*
X-1381701Y+2618299D02*
X-1381701Y+2389701D01*
X-1610299Y+2389701D01*
X-1610299Y+2618299D01*
X-1381701Y+2618299D01*
G37*
G36*
X-1127701Y+2110299D02*
X-1127701Y+1881701D01*
X-1356299Y+1881701D01*
X-1356299Y+2110299D01*
X-1127701Y+2110299D01*
G37*
G36*
X-1127701Y+2364299D02*
X-1127701Y+2135701D01*
X-1356299Y+2135701D01*
X-1356299Y+2364299D01*
X-1127701Y+2364299D01*
G37*
G36*
X-1623001Y-1119001D02*
X-1623001Y-1372999D01*
X-1876999Y-1372999D01*
X-1876999Y-1119001D01*
X-1623001Y-1119001D01*
G37*
G36*
X-1623001Y-1373001D02*
X-1623001Y-1626999D01*
X-1876999Y-1626999D01*
X-1876999Y-1373001D01*
X-1623001Y-1373001D01*
G37*
G36*
X-1623001Y-1627001D02*
X-1623001Y-1880999D01*
X-1876999Y-1880999D01*
X-1876999Y-1627001D01*
X-1623001Y-1627001D01*
G37*
G36*
X-1623001Y-2135001D02*
X-1623001Y-2388999D01*
X-1876999Y-2388999D01*
X-1876999Y-2135001D01*
X-1623001Y-2135001D01*
G37*
G36*
X+2626999Y+2110999D02*
X+2626999Y+1857001D01*
X+2373001Y+1857001D01*
X+2373001Y+2110999D01*
X+2626999Y+2110999D01*
G37*
G36*
X+2880999Y+2364999D02*
X+2880999Y+2111001D01*
X+2627001Y+2111001D01*
X+2627001Y+2364999D01*
X+2880999Y+2364999D01*
G37*
G36*
X+2880999Y+2618999D02*
X+2880999Y+2365001D01*
X+2627001Y+2365001D01*
X+2627001Y+2618999D01*
X+2880999Y+2618999D01*
G37*
G36*
X+2880999Y+2872999D02*
X+2880999Y+2619001D01*
X+2627001Y+2619001D01*
X+2627001Y+2872999D01*
X+2880999Y+2872999D01*
G37*
G36*
X+2880999Y+3126999D02*
X+2880999Y+2873001D01*
X+2627001Y+2873001D01*
X+2627001Y+3126999D01*
X+2880999Y+3126999D01*
G37*
G36*
X+2627001Y-1634999D02*
X+2627001Y-1381001D01*
X+2880999Y-1381001D01*
X+2880999Y-1634999D01*
X+2627001Y-1634999D01*
G37*
G36*
X+2627001Y-1380999D02*
X+2627001Y-1127001D01*
X+2880999Y-1127001D01*
X+2880999Y-1380999D01*
X+2627001Y-1380999D01*
G37*
G36*
X+2627001Y-1126999D02*
X+2627001Y-873001D01*
X+2880999Y-873001D01*
X+2880999Y-1126999D01*
X+2627001Y-1126999D01*
G37*
G36*
X-2646049Y+1603951D02*
X-2646049Y+1896049D01*
X-2353951Y+1896049D01*
X-2353951Y+1603951D01*
X-2646049Y+1603951D01*
G37*
G36*
X-2123001Y-381001D02*
X-2123001Y-634999D01*
X-2376999Y-634999D01*
X-2376999Y-381001D01*
X-2123001Y-381001D01*
G37*
G36*
X-2123001Y-635001D02*
X-2123001Y-888999D01*
X-2376999Y-888999D01*
X-2376999Y-635001D01*
X-2123001Y-635001D01*
G37*
G36*
X-1869001Y-635001D02*
X-1869001Y-888999D01*
X-2122999Y-888999D01*
X-2122999Y-635001D01*
X-1869001Y-635001D01*
G37*
G36*
X-1869001Y-381001D02*
X-1869001Y-634999D01*
X-2122999Y-634999D01*
X-2122999Y-381001D01*
X-1869001Y-381001D01*
G37*
G36*
X-1869001Y-127001D02*
X-1869001Y-380999D01*
X-2122999Y-380999D01*
X-2122999Y-127001D01*
X-1869001Y-127001D01*
G37*
G36*
X+2876999Y+872999D02*
X+2876999Y+619001D01*
X+2623001Y+619001D01*
X+2623001Y+872999D01*
X+2876999Y+872999D01*
G37*
G36*
X-2385701Y+2576199D02*
X-2114299Y+2576199D01*
X-2114299Y+2610299D01*
X-1885701Y+2610299D01*
X-1885701Y+2381701D01*
X-2114299Y+2381701D01*
X-2114299Y+2423801D01*
X-2385701Y+2423801D01*
X-2385701Y+2385701D01*
X-2614299Y+2385701D01*
X-2614299Y+2614299D01*
X-2385701Y+2614299D01*
X-2385701Y+2576199D01*
G37*
G36*
X-2114299Y+2635701D02*
X-2114299Y+2864299D01*
X-1885701Y+2864299D01*
X-1885701Y+2635701D01*
X-2114299Y+2635701D01*
G37*
G36*
X-2614299Y+2639701D02*
X-2614299Y+2868299D01*
X-2385701Y+2868299D01*
X-2385701Y+2639701D01*
X-2614299Y+2639701D01*
G37*
%LPD*%
G36*
X+2379360Y-619001D02*
X+2373001Y-619001D01*
X+2373001Y-788759D01*
X+1826767Y-242525D01*
X+2002884Y-242525D01*
X+2379360Y-619001D01*
G37*
G36*
X-585444Y-979801D02*
X-1259518Y-979801D01*
X-1230177Y-950460D01*
X-556103Y-950460D01*
X-585444Y-979801D01*
G37*
G36*
X-1196371Y-2125880D02*
X-1188021Y-2134230D01*
X-1228179Y-2134230D01*
X-1369001Y-1993408D01*
X-1369001Y-1953250D01*
X-1196371Y-2125880D01*
G37*
D10*
X+2500000Y+3000000D02*
X+1524000Y+3000000D01*
X+1024000Y+2500000D01*
X+2500000Y+2746000D02*
X+1778000Y+2746000D01*
X+1024000Y+1992000D01*
X+1024000Y+1484000D02*
X+2032000Y+2492000D01*
X+2500000Y+2492000D01*
X+1024000Y+976000D02*
X+2286000Y+2238000D01*
X+2500000Y+2238000D01*
X+2500000Y-1000000D02*
X+2476482Y-1000000D01*
X+1747408Y-270926D01*
X+1738000Y-270926D01*
X+1047074Y-270926D01*
X+1024000Y-294000D01*
X+2500000Y-1254000D02*
X+2237242Y-1254000D01*
X+1806610Y-823368D01*
X+1045368Y-823368D01*
X+1024000Y-802000D01*
X+2500000Y-1508000D02*
X+1982265Y-1508000D01*
X+1776386Y-1302121D01*
X+1031879Y-1302121D01*
X+1024000Y-1310000D01*
X+2500000Y-1762000D02*
X+1080000Y-1762000D01*
X+1024000Y-1818000D01*
X+2754000Y-1762000D02*
X+2754000Y-1810226D01*
X+2492226Y-2072000D01*
X+1024000Y-2072000D01*
X-1242000Y+3012000D02*
X-1210760Y+3012000D01*
X-500000Y+2301240D01*
X-500000Y+2246000D01*
X-1242000Y+2758000D02*
X-1217572Y+2758000D01*
X-716939Y+2257367D01*
X-716939Y+2144378D01*
X-716939Y+1954939D01*
X-500000Y+1738000D01*
X-1242000Y+2504000D02*
X-1103679Y+2504000D01*
X-1028790Y+2429111D01*
X-820889Y+2221210D01*
X-811850Y+2221210D01*
X-811850Y+1541850D01*
X-500000Y+1230000D01*
X+2500000Y-746000D02*
X+2500000Y-718275D01*
X+2500000Y-631881D01*
X+2034445Y-166326D01*
X-119674Y-166326D01*
X-500000Y+214000D01*
X+2754000Y+1984000D02*
X+2968084Y+1984000D01*
X+3052263Y+1899821D01*
X+3052263Y-166012D01*
X+2500000Y-718275D01*
X+1024000Y-2326000D02*
X-290241Y-2326000D01*
X-400866Y-2215375D01*
X-467644Y-2215375D01*
X-472590Y-2210429D01*
X-1259740Y-2210429D01*
X-1462169Y-2008000D01*
X-1496000Y-2008000D01*
X-500000Y-2072000D02*
X-1142491Y-2072000D01*
X-1460491Y-1754000D01*
X-1496000Y-1754000D01*
X-500000Y-1564000D02*
X-1432000Y-1564000D01*
X-1496000Y-1500000D01*
X-500000Y-1056000D02*
X-1306000Y-1056000D01*
X-1496000Y-1246000D01*
X-1750000Y-2008000D02*
X-1858974Y-2008000D01*
X-2039318Y-2188344D01*
X-2039318Y-2366590D01*
X-1916120Y-2489788D01*
X-663788Y-2489788D01*
X-500000Y-2326000D01*
X-1750000Y+1318200D02*
X-2500000Y+1318200D01*
X-2500000Y+766000D01*
X-2516000Y+750000D01*
X-2516000Y-26629D01*
X-2288629Y-254000D01*
X-2250000Y-254000D01*
X-1500000Y+750000D02*
X-1996000Y+254000D01*
X-1315621Y-874261D02*
X-572261Y-874261D01*
X-500000Y-802000D01*
X-1566962Y-134694D02*
X-1903656Y+202000D01*
X-1955656Y+254000D01*
X-1996000Y+254000D01*
X-500000Y+214000D02*
X-500000Y+202000D01*
X-1903656Y+202000D01*
X-1944000Y+202000D01*
X-1996000Y+254000D01*
X-2500000Y+2500000D02*
X-2004000Y+2500000D01*
X-2000000Y+2496000D01*
X-2250000Y+254000D02*
X-2375457Y+379457D01*
X-1430803Y+1324111D01*
X-1430803Y+1519156D01*
X-1456227Y+1544580D01*
X-500000Y+976000D02*
X-1068580Y+1544580D01*
X-1456227Y+1544580D01*
X-1797090Y+1885443D01*
X-1797090Y+1973367D01*
X-1652912Y+2117545D01*
X-1520457Y+2250000D01*
X-1496000Y+2250000D01*
X+2750000Y+1000000D02*
X+1556000Y+1000000D01*
X+1024000Y+468000D01*
X+2750000Y+492000D02*
X+1750000Y+492000D01*
X+1556000Y+492000D01*
X+1024000Y-40000D01*
D11*
X-1315621Y-874261D03*
X-1566962Y-134694D03*
D17*
X+3439040Y-2689040D02*
X-3189040Y-2689040D01*
X-3189040Y+3689040D01*
X+3439040Y+3689040D01*
X+3439040Y-2689040D01*
X-1127701Y+3036701D02*
X-614299Y+2523299D01*
X-614299Y+2614299D01*
X-385701Y+2614299D01*
X-385701Y+2385701D01*
X-476701Y+2385701D01*
X-423801Y+2332801D01*
X-423801Y+2331444D01*
X-385701Y+2293344D01*
X-385701Y+2198656D01*
X-452656Y+2131701D01*
X-547344Y+2131701D01*
X-614299Y+2198656D01*
X-614299Y+2293344D01*
X-607082Y+2300562D01*
X-1127701Y+2821181D01*
X-1127701Y+2775889D01*
X-640740Y+2288928D01*
X-640740Y+1986500D01*
X-614299Y+1960059D01*
X-614299Y+2039344D01*
X-547344Y+2106299D01*
X-452656Y+2106299D01*
X-385701Y+2039344D01*
X-385701Y+1944656D01*
X-452656Y+1877701D01*
X-531941Y+1877701D01*
X-506539Y+1852299D01*
X-452656Y+1852299D01*
X-385701Y+1785344D01*
X-385701Y+1690656D01*
X-452656Y+1623701D01*
X-547344Y+1623701D01*
X-614299Y+1690656D01*
X-614299Y+1744539D01*
X-735651Y+1865891D01*
X-735651Y+1573411D01*
X-614299Y+1452059D01*
X-614299Y+1531344D01*
X-547344Y+1598299D01*
X-452656Y+1598299D01*
X-385701Y+1531344D01*
X-385701Y+1436656D01*
X-452656Y+1369701D01*
X-531941Y+1369701D01*
X-506539Y+1344299D01*
X-452656Y+1344299D01*
X-385701Y+1277344D01*
X-385701Y+1182656D01*
X-452656Y+1115701D01*
X-531941Y+1115701D01*
X-506539Y+1090299D01*
X-452656Y+1090299D01*
X-385701Y+1023344D01*
X-385701Y+928656D01*
X-452656Y+861701D01*
X-547344Y+861701D01*
X-614299Y+928656D01*
X-614299Y+982539D01*
X-1100141Y+1468381D01*
X-1354604Y+1468381D01*
X-1354604Y+1292550D01*
X-2266155Y+380999D01*
X-2123001Y+380999D01*
X-2123001Y+127001D01*
X-2376999Y+127001D01*
X-2376999Y+273239D01*
X-2439801Y+336041D01*
X-2439801Y+4932D01*
X-2376999Y-57870D01*
X-2376999Y+126999D01*
X-2123001Y+126999D01*
X-2123001Y-126999D01*
X-2307870Y-126999D01*
X-2307868Y-127001D01*
X-2123001Y-127001D01*
X-2123001Y-380999D01*
X-2376999Y-380999D01*
X-2376999Y-273390D01*
X-2592199Y-58190D01*
X-2592199Y+646595D01*
X-2642999Y+697395D01*
X-2642999Y+802605D01*
X-2576199Y+869405D01*
X-2576199Y+1172151D01*
X-2646049Y+1172151D01*
X-2646049Y+1464249D01*
X-2353951Y+1464249D01*
X-2353951Y+1394399D01*
X-1853405Y+1394399D01*
X-1802605Y+1445199D01*
X-1697395Y+1445199D01*
X-1623001Y+1370805D01*
X-1623001Y+1265595D01*
X-1697395Y+1191201D01*
X-1802605Y+1191201D01*
X-1853405Y+1242001D01*
X-2353951Y+1242001D01*
X-2353951Y+1172151D01*
X-2423801Y+1172151D01*
X-2423801Y+837405D01*
X-2389001Y+802605D01*
X-2389001Y+697395D01*
X-2439801Y+646595D01*
X-2439801Y+422873D01*
X-1507002Y+1355672D01*
X-1507002Y+1487593D01*
X-1532426Y+1513017D01*
X-1532426Y+1513019D01*
X-1623001Y+1603594D01*
X-1623001Y+1519595D01*
X-1697395Y+1445201D01*
X-1802605Y+1445201D01*
X-1876999Y+1519595D01*
X-1876999Y+1624805D01*
X-1802605Y+1699199D01*
X-1718606Y+1699199D01*
X-1828651Y+1809244D01*
X-1828653Y+1809244D01*
X-1873289Y+1853880D01*
X-1873289Y+2004930D01*
X-1828653Y+2049566D01*
X-1828651Y+2049566D01*
X-1610299Y+2267918D01*
X-1610299Y+2364299D01*
X-1381701Y+2364299D01*
X-1381701Y+2135701D01*
X-1526996Y+2135701D01*
X-1552398Y+2110299D01*
X-1381701Y+2110299D01*
X-1381701Y+1881701D01*
X-1610299Y+1881701D01*
X-1610299Y+2052398D01*
X-1720891Y+1941806D01*
X-1720891Y+1917004D01*
X-1424666Y+1620779D01*
X-1037019Y+1620779D01*
X-614299Y+1198059D01*
X-614299Y+1236539D01*
X-888049Y+1510289D01*
X-888049Y+2180610D01*
X-1127701Y+2420262D01*
X-1127701Y+2389701D01*
X-1356299Y+2389701D01*
X-1356299Y+2618299D01*
X-1185631Y+2618299D01*
X-1211033Y+2643701D01*
X-1356299Y+2643701D01*
X-1356299Y+2872299D01*
X-1178819Y+2872299D01*
X-1204221Y+2897701D01*
X-1356299Y+2897701D01*
X-1356299Y+3126299D01*
X-1127701Y+3126299D01*
X-1127701Y+3036701D01*
X-547344Y+836299D02*
X-452656Y+836299D01*
X-385701Y+769344D01*
X-385701Y+674656D01*
X-452656Y+607701D01*
X-547344Y+607701D01*
X-614299Y+674656D01*
X-614299Y+769344D01*
X-547344Y+836299D01*
X-547344Y+582299D02*
X-452656Y+582299D01*
X-385701Y+515344D01*
X-385701Y+420656D01*
X-452656Y+353701D01*
X-547344Y+353701D01*
X-614299Y+420656D01*
X-614299Y+515344D01*
X-547344Y+582299D01*
X+2880999Y+2060199D02*
X+2999645Y+2060199D01*
X+3128462Y+1931382D01*
X+3128462Y-197573D01*
X+2707034Y-619001D01*
X+2880999Y-619001D01*
X+2880999Y-872999D01*
X+2627001Y-872999D01*
X+2627001Y-699034D01*
X+2626999Y-699036D01*
X+2626999Y-872999D01*
X+2457241Y-872999D01*
X+2457243Y-873001D01*
X+2626999Y-873001D01*
X+2626999Y-1126999D01*
X+2373001Y-1126999D01*
X+2373001Y-1004279D01*
X+1715847Y-347125D01*
X+1132518Y-347125D01*
X+1071344Y-408299D01*
X+976656Y-408299D01*
X+909701Y-341344D01*
X+909701Y-246656D01*
X+913832Y-242525D01*
X-151235Y-242525D01*
X-385701Y-8059D01*
X-385701Y-87344D01*
X-452656Y-154299D01*
X-547344Y-154299D01*
X-614299Y-87344D01*
X-614299Y+7344D01*
X-547344Y+74299D01*
X-468059Y+74299D01*
X-493461Y+99701D01*
X-547344Y+99701D01*
X-573444Y+125801D01*
X-1719697Y+125801D01*
X-1573501Y-20395D01*
X-1519618Y-20395D01*
X-1452663Y-87350D01*
X-1452663Y-182038D01*
X-1519618Y-248993D01*
X-1614306Y-248993D01*
X-1681261Y-182038D01*
X-1681261Y-128155D01*
X-1869001Y+59585D01*
X-1869001Y-126999D01*
X-2122999Y-126999D01*
X-2122999Y+126999D01*
X-1976759Y+126999D01*
X-1976761Y+127001D01*
X-2122999Y+127001D01*
X-2122999Y+380999D01*
X-1976761Y+380999D01*
X-1626999Y+730761D01*
X-1626999Y+802605D01*
X-1552605Y+876999D01*
X-1447395Y+876999D01*
X-1373001Y+802605D01*
X-1373001Y+697395D01*
X-1447395Y+623001D01*
X-1519239Y+623001D01*
X-1864041Y+278199D01*
X-597444Y+278199D01*
X-547344Y+328299D01*
X-452656Y+328299D01*
X-385701Y+261344D01*
X-385701Y+207461D01*
X-88113Y-90127D01*
X+912484Y-90127D01*
X+909701Y-87344D01*
X+909701Y+7344D01*
X+976656Y+74299D01*
X+1030539Y+74299D01*
X+1055941Y+99701D01*
X+976656Y+99701D01*
X+909701Y+166656D01*
X+909701Y+261344D01*
X+976656Y+328299D01*
X+1071344Y+328299D01*
X+1138299Y+261344D01*
X+1138299Y+182059D01*
X+1524439Y+568199D01*
X+2623001Y+568199D01*
X+2623001Y+618999D01*
X+2876999Y+618999D01*
X+2876999Y+365001D01*
X+2623001Y+365001D01*
X+2623001Y+415801D01*
X+1587561Y+415801D01*
X+1138299Y-33461D01*
X+1138299Y-87344D01*
X+1135516Y-90127D01*
X+2066006Y-90127D01*
X+2543197Y-567318D01*
X+2976064Y-134451D01*
X+2976064Y+1868260D01*
X+2936523Y+1907801D01*
X+2880999Y+1907801D01*
X+2880999Y+1857001D01*
X+2627001Y+1857001D01*
X+2627001Y+2110999D01*
X+2880999Y+2110999D01*
X+2880999Y+2060199D01*
X-547344Y-179701D02*
X-452656Y-179701D01*
X-385701Y-246656D01*
X-385701Y-341344D01*
X-452656Y-408299D01*
X-547344Y-408299D01*
X-614299Y-341344D01*
X-614299Y-246656D01*
X-547344Y-179701D01*
X-547344Y-433701D02*
X-452656Y-433701D01*
X-385701Y-500656D01*
X-385701Y-595344D01*
X-452656Y-662299D01*
X-547344Y-662299D01*
X-614299Y-595344D01*
X-614299Y-500656D01*
X-547344Y-433701D01*
X-385701Y-754656D02*
X-385701Y-849344D01*
X-452656Y-916299D01*
X-506539Y-916299D01*
X-531941Y-941701D01*
X-452656Y-941701D01*
X-385701Y-1008656D01*
X-385701Y-1103344D01*
X-452656Y-1170299D01*
X-547344Y-1170299D01*
X-585444Y-1132199D01*
X-1274439Y-1132199D01*
X-1369001Y-1226761D01*
X-1369001Y-1372999D01*
X-1622999Y-1372999D01*
X-1622999Y-1119001D01*
X-1476761Y-1119001D01*
X-1346320Y-988560D01*
X-1362965Y-988560D01*
X-1429920Y-921605D01*
X-1429920Y-826917D01*
X-1362965Y-759962D01*
X-1268277Y-759962D01*
X-1230177Y-798062D01*
X-614299Y-798062D01*
X-614299Y-754656D01*
X-547344Y-687701D01*
X-452656Y-687701D01*
X-385701Y-754656D01*
X-547344Y-1195701D02*
X-452656Y-1195701D01*
X-385701Y-1262656D01*
X-385701Y-1357344D01*
X-452656Y-1424299D01*
X-547344Y-1424299D01*
X-614299Y-1357344D01*
X-614299Y-1262656D01*
X-547344Y-1195701D01*
X-1369001Y-1487801D02*
X-585444Y-1487801D01*
X-547344Y-1449701D01*
X-452656Y-1449701D01*
X-385701Y-1516656D01*
X-385701Y-1611344D01*
X-452656Y-1678299D01*
X-547344Y-1678299D01*
X-585444Y-1640199D01*
X-1369001Y-1640199D01*
X-1369001Y-1737730D01*
X-1110930Y-1995801D01*
X-585444Y-1995801D01*
X-547344Y-1957701D01*
X-452656Y-1957701D01*
X-385701Y-2024656D01*
X-385701Y-2119344D01*
X-405533Y-2139176D01*
X-369305Y-2139176D01*
X-258680Y-2249801D01*
X+938556Y-2249801D01*
X+976656Y-2211701D01*
X+1071344Y-2211701D01*
X+1138299Y-2278656D01*
X+1138299Y-2373344D01*
X+1071344Y-2440299D01*
X+976656Y-2440299D01*
X+938556Y-2402199D01*
X-321802Y-2402199D01*
X-385701Y-2338300D01*
X-385701Y-2373344D01*
X-452656Y-2440299D01*
X-506539Y-2440299D01*
X-632227Y-2565987D01*
X-1947681Y-2565987D01*
X-2115517Y-2398151D01*
X-2115517Y-2156783D01*
X-1890535Y-1931801D01*
X-1876999Y-1931801D01*
X-1876999Y-1881001D01*
X-1623001Y-1881001D01*
X-1623001Y-2134999D01*
X-1876999Y-2134999D01*
X-1876999Y-2133785D01*
X-1963119Y-2219905D01*
X-1963119Y-2335029D01*
X-1884559Y-2413589D01*
X-695349Y-2413589D01*
X-614299Y-2332539D01*
X-614299Y-2286628D01*
X-1291301Y-2286628D01*
X-1369001Y-2208928D01*
X-1369001Y-2388999D01*
X-1622999Y-2388999D01*
X-1622999Y-2135001D01*
X-1442928Y-2135001D01*
X-1442930Y-2134999D01*
X-1622999Y-2134999D01*
X-1622999Y-1881001D01*
X-1441250Y-1881001D01*
X-1441252Y-1880999D01*
X-1622999Y-1880999D01*
X-1622999Y-1627001D01*
X-1476759Y-1627001D01*
X-1476761Y-1626999D01*
X-1622999Y-1626999D01*
X-1622999Y-1373001D01*
X-1369001Y-1373001D01*
X-1369001Y-1487801D01*
X-547344Y-1703701D02*
X-452656Y-1703701D01*
X-385701Y-1770656D01*
X-385701Y-1865344D01*
X-452656Y-1932299D01*
X-547344Y-1932299D01*
X-614299Y-1865344D01*
X-614299Y-1770656D01*
X-547344Y-1703701D01*
X+2880999Y-1888999D02*
X+2782987Y-1888999D01*
X+2523787Y-2148199D01*
X+1109444Y-2148199D01*
X+1071344Y-2186299D01*
X+976656Y-2186299D01*
X+909701Y-2119344D01*
X+909701Y-2024656D01*
X+976656Y-1957701D01*
X+1071344Y-1957701D01*
X+1109444Y-1995801D01*
X+2460665Y-1995801D01*
X+2567467Y-1888999D01*
X+2373001Y-1888999D01*
X+2373001Y-1838199D01*
X+1138299Y-1838199D01*
X+1138299Y-1865344D01*
X+1071344Y-1932299D01*
X+976656Y-1932299D01*
X+909701Y-1865344D01*
X+909701Y-1770656D01*
X+976656Y-1703701D01*
X+1030539Y-1703701D01*
X+1048439Y-1685801D01*
X+2373001Y-1685801D01*
X+2373001Y-1635001D01*
X+2626999Y-1635001D01*
X+2626999Y-1829467D01*
X+2627001Y-1829465D01*
X+2627001Y-1635001D01*
X+2880999Y-1635001D01*
X+2880999Y-1888999D01*
X+1071344Y-1678299D02*
X+976656Y-1678299D01*
X+909701Y-1611344D01*
X+909701Y-1516656D01*
X+976656Y-1449701D01*
X+1071344Y-1449701D01*
X+1138299Y-1516656D01*
X+1138299Y-1611344D01*
X+1071344Y-1678299D01*
X+1101565Y-1225922D02*
X+1807947Y-1225922D01*
X+2013826Y-1431801D01*
X+2373001Y-1431801D01*
X+2373001Y-1381001D01*
X+2626999Y-1381001D01*
X+2626999Y-1634999D01*
X+2373001Y-1634999D01*
X+2373001Y-1584199D01*
X+1950704Y-1584199D01*
X+1744825Y-1378320D01*
X+1117323Y-1378320D01*
X+1071344Y-1424299D01*
X+976656Y-1424299D01*
X+909701Y-1357344D01*
X+909701Y-1262656D01*
X+976656Y-1195701D01*
X+1071344Y-1195701D01*
X+1101565Y-1225922D01*
X+1071344Y-1170299D02*
X+976656Y-1170299D01*
X+909701Y-1103344D01*
X+909701Y-1008656D01*
X+976656Y-941701D01*
X+1071344Y-941701D01*
X+1138299Y-1008656D01*
X+1138299Y-1103344D01*
X+1071344Y-1170299D01*
X+1130812Y-747169D02*
X+1838171Y-747169D01*
X+2268803Y-1177801D01*
X+2373001Y-1177801D01*
X+2373001Y-1127001D01*
X+2626999Y-1127001D01*
X+2626999Y-1380999D01*
X+2373001Y-1380999D01*
X+2373001Y-1330199D01*
X+2205681Y-1330199D01*
X+1775049Y-899567D01*
X+1088076Y-899567D01*
X+1071344Y-916299D01*
X+976656Y-916299D01*
X+909701Y-849344D01*
X+909701Y-754656D01*
X+976656Y-687701D01*
X+1071344Y-687701D01*
X+1130812Y-747169D01*
X+1071344Y-662299D02*
X+976656Y-662299D01*
X+909701Y-595344D01*
X+909701Y-500656D01*
X+976656Y-433701D01*
X+1071344Y-433701D01*
X+1138299Y-500656D01*
X+1138299Y-595344D01*
X+1071344Y-662299D01*
X+2876999Y+873001D02*
X+2623001Y+873001D01*
X+2623001Y+923801D01*
X+1587561Y+923801D01*
X+1138299Y+474539D01*
X+1138299Y+420656D01*
X+1071344Y+353701D01*
X+976656Y+353701D01*
X+909701Y+420656D01*
X+909701Y+515344D01*
X+976656Y+582299D01*
X+1030539Y+582299D01*
X+1055941Y+607701D01*
X+976656Y+607701D01*
X+909701Y+674656D01*
X+909701Y+769344D01*
X+976656Y+836299D01*
X+1071344Y+836299D01*
X+1138299Y+769344D01*
X+1138299Y+690059D01*
X+1524439Y+1076199D01*
X+2623001Y+1076199D01*
X+2623001Y+1126999D01*
X+2876999Y+1126999D01*
X+2876999Y+873001D01*
X+2626999Y+2111001D02*
X+2373001Y+2111001D01*
X+2373001Y+2161801D01*
X+2317561Y+2161801D01*
X+1138299Y+982539D01*
X+1138299Y+928656D01*
X+1071344Y+861701D01*
X+976656Y+861701D01*
X+909701Y+928656D01*
X+909701Y+1023344D01*
X+976656Y+1090299D01*
X+1030539Y+1090299D01*
X+1055941Y+1115701D01*
X+976656Y+1115701D01*
X+909701Y+1182656D01*
X+909701Y+1277344D01*
X+976656Y+1344299D01*
X+1071344Y+1344299D01*
X+1138299Y+1277344D01*
X+1138299Y+1198059D01*
X+2254439Y+2314199D01*
X+2373001Y+2314199D01*
X+2373001Y+2364999D01*
X+2626999Y+2364999D01*
X+2626999Y+2111001D01*
X+2626999Y+2365001D02*
X+2373001Y+2365001D01*
X+2373001Y+2415801D01*
X+2063561Y+2415801D01*
X+1138299Y+1490539D01*
X+1138299Y+1436656D01*
X+1071344Y+1369701D01*
X+976656Y+1369701D01*
X+909701Y+1436656D01*
X+909701Y+1531344D01*
X+976656Y+1598299D01*
X+1030539Y+1598299D01*
X+1055941Y+1623701D01*
X+976656Y+1623701D01*
X+909701Y+1690656D01*
X+909701Y+1785344D01*
X+976656Y+1852299D01*
X+1071344Y+1852299D01*
X+1138299Y+1785344D01*
X+1138299Y+1706059D01*
X+2000439Y+2568199D01*
X+2373001Y+2568199D01*
X+2373001Y+2618999D01*
X+2626999Y+2618999D01*
X+2626999Y+2365001D01*
X+2626999Y+2619001D02*
X+2373001Y+2619001D01*
X+2373001Y+2669801D01*
X+1809561Y+2669801D01*
X+1138299Y+1998539D01*
X+1138299Y+1944656D01*
X+1071344Y+1877701D01*
X+976656Y+1877701D01*
X+909701Y+1944656D01*
X+909701Y+2039344D01*
X+976656Y+2106299D01*
X+1030539Y+2106299D01*
X+1055941Y+2131701D01*
X+976656Y+2131701D01*
X+909701Y+2198656D01*
X+909701Y+2293344D01*
X+976656Y+2360299D01*
X+1071344Y+2360299D01*
X+1138299Y+2293344D01*
X+1138299Y+2214059D01*
X+1746439Y+2822199D01*
X+2373001Y+2822199D01*
X+2373001Y+2872999D01*
X+2626999Y+2872999D01*
X+2626999Y+2619001D01*
X+2626999Y+2873001D02*
X+2373001Y+2873001D01*
X+2373001Y+2923801D01*
X+1555561Y+2923801D01*
X+1138299Y+2506539D01*
X+1138299Y+2452656D01*
X+1071344Y+2385701D01*
X+976656Y+2385701D01*
X+909701Y+2452656D01*
X+909701Y+2547344D01*
X+976656Y+2614299D01*
X+1030539Y+2614299D01*
X+1492439Y+3076199D01*
X+2373001Y+3076199D01*
X+2373001Y+3126999D01*
X+2626999Y+3126999D01*
X+2626999Y+2873001D01*
X-1381701Y+3126299D02*
X-1381701Y+2897701D01*
X-1610299Y+2897701D01*
X-1610299Y+3126299D01*
X-1381701Y+3126299D01*
X-1381701Y+2872299D02*
X-1381701Y+2643701D01*
X-1610299Y+2643701D01*
X-1610299Y+2872299D01*
X-1381701Y+2872299D01*
X-1381701Y+2618299D02*
X-1381701Y+2389701D01*
X-1610299Y+2389701D01*
X-1610299Y+2618299D01*
X-1381701Y+2618299D01*
X-1127701Y+2110299D02*
X-1127701Y+1881701D01*
X-1356299Y+1881701D01*
X-1356299Y+2110299D01*
X-1127701Y+2110299D01*
X-1127701Y+2364299D02*
X-1127701Y+2135701D01*
X-1356299Y+2135701D01*
X-1356299Y+2364299D01*
X-1127701Y+2364299D01*
X-1623001Y-1119001D02*
X-1623001Y-1372999D01*
X-1876999Y-1372999D01*
X-1876999Y-1119001D01*
X-1623001Y-1119001D01*
X-1623001Y-1373001D02*
X-1623001Y-1626999D01*
X-1876999Y-1626999D01*
X-1876999Y-1373001D01*
X-1623001Y-1373001D01*
X-1623001Y-1627001D02*
X-1623001Y-1880999D01*
X-1876999Y-1880999D01*
X-1876999Y-1627001D01*
X-1623001Y-1627001D01*
X-1623001Y-2135001D02*
X-1623001Y-2388999D01*
X-1876999Y-2388999D01*
X-1876999Y-2135001D01*
X-1623001Y-2135001D01*
X+2626999Y+2110999D02*
X+2626999Y+1857001D01*
X+2373001Y+1857001D01*
X+2373001Y+2110999D01*
X+2626999Y+2110999D01*
X+2880999Y+2364999D02*
X+2880999Y+2111001D01*
X+2627001Y+2111001D01*
X+2627001Y+2364999D01*
X+2880999Y+2364999D01*
X+2880999Y+2618999D02*
X+2880999Y+2365001D01*
X+2627001Y+2365001D01*
X+2627001Y+2618999D01*
X+2880999Y+2618999D01*
X+2880999Y+2872999D02*
X+2880999Y+2619001D01*
X+2627001Y+2619001D01*
X+2627001Y+2872999D01*
X+2880999Y+2872999D01*
X+2880999Y+3126999D02*
X+2880999Y+2873001D01*
X+2627001Y+2873001D01*
X+2627001Y+3126999D01*
X+2880999Y+3126999D01*
X+2627001Y-1634999D02*
X+2627001Y-1381001D01*
X+2880999Y-1381001D01*
X+2880999Y-1634999D01*
X+2627001Y-1634999D01*
X+2627001Y-1380999D02*
X+2627001Y-1127001D01*
X+2880999Y-1127001D01*
X+2880999Y-1380999D01*
X+2627001Y-1380999D01*
X+2627001Y-1126999D02*
X+2627001Y-873001D01*
X+2880999Y-873001D01*
X+2880999Y-1126999D01*
X+2627001Y-1126999D01*
X-2646049Y+1603951D02*
X-2646049Y+1896049D01*
X-2353951Y+1896049D01*
X-2353951Y+1603951D01*
X-2646049Y+1603951D01*
X-2123001Y-381001D02*
X-2123001Y-634999D01*
X-2376999Y-634999D01*
X-2376999Y-381001D01*
X-2123001Y-381001D01*
X-2123001Y-635001D02*
X-2123001Y-888999D01*
X-2376999Y-888999D01*
X-2376999Y-635001D01*
X-2123001Y-635001D01*
X-1869001Y-635001D02*
X-1869001Y-888999D01*
X-2122999Y-888999D01*
X-2122999Y-635001D01*
X-1869001Y-635001D01*
X-1869001Y-381001D02*
X-1869001Y-634999D01*
X-2122999Y-634999D01*
X-2122999Y-381001D01*
X-1869001Y-381001D01*
X-1869001Y-127001D02*
X-1869001Y-380999D01*
X-2122999Y-380999D01*
X-2122999Y-127001D01*
X-1869001Y-127001D01*
X+2876999Y+872999D02*
X+2876999Y+619001D01*
X+2623001Y+619001D01*
X+2623001Y+872999D01*
X+2876999Y+872999D01*
X-2385701Y+2576199D02*
X-2114299Y+2576199D01*
X-2114299Y+2610299D01*
X-1885701Y+2610299D01*
X-1885701Y+2381701D01*
X-2114299Y+2381701D01*
X-2114299Y+2423801D01*
X-2385701Y+2423801D01*
X-2385701Y+2385701D01*
X-2614299Y+2385701D01*
X-2614299Y+2614299D01*
X-2385701Y+2614299D01*
X-2385701Y+2576199D01*
X-2114299Y+2635701D02*
X-2114299Y+2864299D01*
X-1885701Y+2864299D01*
X-1885701Y+2635701D01*
X-2114299Y+2635701D01*
X-2614299Y+2639701D02*
X-2614299Y+2868299D01*
X-2385701Y+2868299D01*
X-2385701Y+2639701D01*
X-2614299Y+2639701D01*
X+2379360Y-619001D02*
X+2373001Y-619001D01*
X+2373001Y-788759D01*
X+1826767Y-242525D01*
X+2002884Y-242525D01*
X+2379360Y-619001D01*
X-585444Y-979801D02*
X-1259518Y-979801D01*
X-1230177Y-950460D01*
X-556103Y-950460D01*
X-585444Y-979801D01*
X-1196371Y-2125880D02*
X-1188021Y-2134230D01*
X-1228179Y-2134230D01*
X-1369001Y-1993408D01*
X-1369001Y-1953250D01*
X-1196371Y-2125880D01*
X-500000Y+74299D02*
X-500000Y-40000D01*
X-500000Y-154299D02*
X-500000Y-40000D01*
X-614299Y-40000D02*
X-500000Y-40000D01*
X-385701Y-40000D02*
X-500000Y-40000D01*
X+1024000Y+99701D02*
X+1024000Y+214000D01*
X+1024000Y+328299D02*
X+1024000Y+214000D01*
X+1138299Y+214000D02*
X+1024000Y+214000D01*
X+909701Y+214000D02*
X+1024000Y+214000D01*
X-1496000Y+2110299D02*
X-1496000Y+1996000D01*
X-1496000Y+1881701D02*
X-1496000Y+1996000D01*
X-1610299Y+1996000D02*
X-1496000Y+1996000D01*
X-1381701Y+1996000D02*
X-1496000Y+1996000D01*
X-1750000Y-2135001D02*
X-1750000Y-2262000D01*
X-1750000Y-2388999D02*
X-1750000Y-2262000D01*
X-1876999Y-2262000D02*
X-1750000Y-2262000D01*
X-1623001Y-2262000D02*
X-1750000Y-2262000D01*
X+2500000Y+2110999D02*
X+2500000Y+1984000D01*
X+2500000Y+1857001D02*
X+2500000Y+1984000D01*
X+2373001Y+1984000D02*
X+2500000Y+1984000D01*
X+2626999Y+1984000D02*
X+2500000Y+1984000D01*
X+2754000Y-872999D02*
X+2754000Y-746000D01*
X+2754000Y-619001D02*
X+2754000Y-746000D01*
X+2880999Y-746000D02*
X+2754000Y-746000D01*
X+2627001Y-746000D02*
X+2754000Y-746000D01*
X-1750000Y+1445201D02*
X-1750000Y+1572200D01*
X-1750000Y+1699199D02*
X-1750000Y+1572200D01*
X-1623001Y+1572200D02*
X-1750000Y+1572200D01*
X-1876999Y+1572200D02*
X-1750000Y+1572200D01*
X-2500000Y+1603951D02*
X-2500000Y+1750000D01*
X-2500000Y+1896049D02*
X-2500000Y+1750000D01*
X-2353951Y+1750000D02*
X-2500000Y+1750000D01*
X-2646049Y+1750000D02*
X-2500000Y+1750000D01*
X-1996000Y-127001D02*
X-1996000Y-254000D01*
X-1996000Y-380999D02*
X-1996000Y-254000D01*
X-2122999Y-254000D02*
X-1996000Y-254000D01*
X-1869001Y-254000D02*
X-1996000Y-254000D01*
X+2750000Y+872999D02*
X+2750000Y+746000D01*
X+2750000Y+619001D02*
X+2750000Y+746000D01*
X+2623001Y+746000D02*
X+2750000Y+746000D01*
X+2876999Y+746000D02*
X+2750000Y+746000D01*
X-2000000Y+2635701D02*
X-2000000Y+2750000D01*
X-2000000Y+2864299D02*
X-2000000Y+2750000D01*
X-1885701Y+2750000D02*
X-2000000Y+2750000D01*
X-2114299Y+2750000D02*
X-2000000Y+2750000D01*
X-2500000Y+2639701D02*
X-2500000Y+2754000D01*
X-2500000Y+2868299D02*
X-2500000Y+2754000D01*
X-2385701Y+2754000D02*
X-2500000Y+2754000D01*
X-2614299Y+2754000D02*
X-2500000Y+2754000D01*
D12*
X-500000Y+2500000D03*
D11*
X-500000Y+2246000D03*
X-500000Y+1992000D03*
X-500000Y+1738000D03*
X-500000Y+1484000D03*
X-500000Y+1230000D03*
X-500000Y+976000D03*
X-500000Y+722000D03*
X-500000Y+468000D03*
X-500000Y+214000D03*
X-500000Y-40000D03*
X-500000Y-294000D03*
X-500000Y-548000D03*
X-500000Y-802000D03*
X-500000Y-1056000D03*
X-500000Y-1310000D03*
X-500000Y-1564000D03*
X-500000Y-1818000D03*
X-500000Y-2072000D03*
X-500000Y-2326000D03*
X+1024000Y-2326000D03*
X+1024000Y-2072000D03*
X+1024000Y-1818000D03*
X+1024000Y-1564000D03*
X+1024000Y-1310000D03*
X+1024000Y-1056000D03*
X+1024000Y-802000D03*
X+1024000Y-548000D03*
X+1024000Y-294000D03*
X+1024000Y-40000D03*
X+1024000Y+214000D03*
X+1024000Y+468000D03*
X+1024000Y+722000D03*
X+1024000Y+976000D03*
X+1024000Y+1230000D03*
X+1024000Y+1484000D03*
X+1024000Y+1738000D03*
X+1024000Y+1992000D03*
X+1024000Y+2246000D03*
X+1024000Y+2500000D03*
D12*
X-1496000Y+3012000D03*
X-1496000Y+2758000D03*
X-1496000Y+2504000D03*
X-1496000Y+2250000D03*
X-1496000Y+1996000D03*
X-1242000Y+1996000D03*
X-1242000Y+2250000D03*
X-1242000Y+2504000D03*
X-1242000Y+2758000D03*
X-1242000Y+3012000D03*
D13*
X-1750000Y-1246000D03*
X-1750000Y-1500000D03*
X-1750000Y-1754000D03*
X-1750000Y-2008000D03*
X-1750000Y-2262000D03*
X-1496000Y-2262000D03*
X-1496000Y-2008000D03*
X-1496000Y-1754000D03*
X-1496000Y-1500000D03*
X-1496000Y-1246000D03*
X+2500000Y+3000000D03*
X+2500000Y+2746000D03*
X+2500000Y+2492000D03*
X+2500000Y+2238000D03*
X+2500000Y+1984000D03*
X+2754000Y+1984000D03*
X+2754000Y+2238000D03*
X+2754000Y+2492000D03*
X+2754000Y+2746000D03*
X+2754000Y+3000000D03*
X+2754000Y-1762000D03*
X+2754000Y-1508000D03*
X+2754000Y-1254000D03*
X+2754000Y-1000000D03*
X+2754000Y-746000D03*
X+2500000Y-746000D03*
X+2500000Y-1000000D03*
X+2500000Y-1254000D03*
X+2500000Y-1508000D03*
X+2500000Y-1762000D03*
D14*
X-1500000Y+750000D03*
X-2516000Y+750000D03*
X-1750000Y+1318200D03*
X-1750000Y+1572200D03*
D15*
X-2500000Y+1318200D03*
X-2500000Y+1750000D03*
D13*
X-2250000Y+254000D03*
X-2250000Y+0D03*
X-2250000Y-254000D03*
X-2250000Y-508000D03*
X-2250000Y-762000D03*
X-1996000Y-762000D03*
X-1996000Y-508000D03*
X-1996000Y-254000D03*
X-1996000Y+0D03*
X-1996000Y+254000D03*
X+2750000Y+1000000D03*
X+2750000Y+746000D03*
X+2750000Y+492000D03*
D12*
X-2000000Y+2496000D03*
X-2000000Y+2750000D03*
X-2500000Y+2500000D03*
X-2500000Y+2754000D03*
D16*
X-3250000Y-2750000D02*
X+3500000Y-2750000D01*
X+3500000Y+3750000D01*
X-3250000Y+3750000D01*
X-3250000Y-2750000D01*
M02*
