G04 PROTEUS RS274X GERBER FILE*
%FSLAX45Y45*%
%MOMM*%
G01*
%ADD16C,0.203200*%
%ADD26C,0.127000*%
%ADD27C,0.063500*%
D16*
X-1315621Y-810761D02*
X-1315621Y-937761D01*
X-1379121Y-874261D02*
X-1252121Y-874261D01*
X-1566962Y-71194D02*
X-1566962Y-198194D01*
X-1630462Y-134694D02*
X-1503462Y-134694D01*
X-500000Y+2563500D02*
X-500000Y+2436500D01*
X-563500Y+2500000D02*
X-436500Y+2500000D01*
X-544901Y+2544901D02*
X-455099Y+2455099D01*
X-544901Y+2455099D02*
X-455099Y+2544901D01*
X-500000Y+2309500D02*
X-500000Y+2182500D01*
X-563500Y+2246000D02*
X-436500Y+2246000D01*
X-544901Y+2290901D02*
X-455099Y+2201099D01*
X-544901Y+2201099D02*
X-455099Y+2290901D01*
X-500000Y+2055500D02*
X-500000Y+1928500D01*
X-563500Y+1992000D02*
X-436500Y+1992000D01*
X-544901Y+2036901D02*
X-455099Y+1947099D01*
X-544901Y+1947099D02*
X-455099Y+2036901D01*
X-500000Y+1801500D02*
X-500000Y+1674500D01*
X-563500Y+1738000D02*
X-436500Y+1738000D01*
X-544901Y+1782901D02*
X-455099Y+1693099D01*
X-544901Y+1693099D02*
X-455099Y+1782901D01*
X-500000Y+1547500D02*
X-500000Y+1420500D01*
X-563500Y+1484000D02*
X-436500Y+1484000D01*
X-544901Y+1528901D02*
X-455099Y+1439099D01*
X-544901Y+1439099D02*
X-455099Y+1528901D01*
X-500000Y+1293500D02*
X-500000Y+1166500D01*
X-563500Y+1230000D02*
X-436500Y+1230000D01*
X-544901Y+1274901D02*
X-455099Y+1185099D01*
X-544901Y+1185099D02*
X-455099Y+1274901D01*
X-500000Y+1039500D02*
X-500000Y+912500D01*
X-563500Y+976000D02*
X-436500Y+976000D01*
X-544901Y+1020901D02*
X-455099Y+931099D01*
X-544901Y+931099D02*
X-455099Y+1020901D01*
X-500000Y+785500D02*
X-500000Y+658500D01*
X-563500Y+722000D02*
X-436500Y+722000D01*
X-544901Y+766901D02*
X-455099Y+677099D01*
X-544901Y+677099D02*
X-455099Y+766901D01*
X-500000Y+531500D02*
X-500000Y+404500D01*
X-563500Y+468000D02*
X-436500Y+468000D01*
X-544901Y+512901D02*
X-455099Y+423099D01*
X-544901Y+423099D02*
X-455099Y+512901D01*
X-500000Y+277500D02*
X-500000Y+150500D01*
X-563500Y+214000D02*
X-436500Y+214000D01*
X-544901Y+258901D02*
X-455099Y+169099D01*
X-544901Y+169099D02*
X-455099Y+258901D01*
X-500000Y+23500D02*
X-500000Y-103500D01*
X-563500Y-40000D02*
X-436500Y-40000D01*
X-544901Y+4901D02*
X-455099Y-84901D01*
X-544901Y-84901D02*
X-455099Y+4901D01*
X-500000Y-230500D02*
X-500000Y-357500D01*
X-563500Y-294000D02*
X-436500Y-294000D01*
X-544901Y-249099D02*
X-455099Y-338901D01*
X-544901Y-338901D02*
X-455099Y-249099D01*
X-500000Y-484500D02*
X-500000Y-611500D01*
X-563500Y-548000D02*
X-436500Y-548000D01*
X-544901Y-503099D02*
X-455099Y-592901D01*
X-544901Y-592901D02*
X-455099Y-503099D01*
X-500000Y-738500D02*
X-500000Y-865500D01*
X-563500Y-802000D02*
X-436500Y-802000D01*
X-544901Y-757099D02*
X-455099Y-846901D01*
X-544901Y-846901D02*
X-455099Y-757099D01*
X-500000Y-992500D02*
X-500000Y-1119500D01*
X-563500Y-1056000D02*
X-436500Y-1056000D01*
X-544901Y-1011099D02*
X-455099Y-1100901D01*
X-544901Y-1100901D02*
X-455099Y-1011099D01*
X-500000Y-1246500D02*
X-500000Y-1373500D01*
X-563500Y-1310000D02*
X-436500Y-1310000D01*
X-544901Y-1265099D02*
X-455099Y-1354901D01*
X-544901Y-1354901D02*
X-455099Y-1265099D01*
X-500000Y-1500500D02*
X-500000Y-1627500D01*
X-563500Y-1564000D02*
X-436500Y-1564000D01*
X-544901Y-1519099D02*
X-455099Y-1608901D01*
X-544901Y-1608901D02*
X-455099Y-1519099D01*
X-500000Y-1754500D02*
X-500000Y-1881500D01*
X-563500Y-1818000D02*
X-436500Y-1818000D01*
X-544901Y-1773099D02*
X-455099Y-1862901D01*
X-544901Y-1862901D02*
X-455099Y-1773099D01*
X-500000Y-2008500D02*
X-500000Y-2135500D01*
X-563500Y-2072000D02*
X-436500Y-2072000D01*
X-544901Y-2027099D02*
X-455099Y-2116901D01*
X-544901Y-2116901D02*
X-455099Y-2027099D01*
X-500000Y-2262500D02*
X-500000Y-2389500D01*
X-563500Y-2326000D02*
X-436500Y-2326000D01*
X-544901Y-2281099D02*
X-455099Y-2370901D01*
X-544901Y-2370901D02*
X-455099Y-2281099D01*
X+1024000Y-2262500D02*
X+1024000Y-2389500D01*
X+960500Y-2326000D02*
X+1087500Y-2326000D01*
X+979099Y-2281099D02*
X+1068901Y-2370901D01*
X+979099Y-2370901D02*
X+1068901Y-2281099D01*
X+1024000Y-2008500D02*
X+1024000Y-2135500D01*
X+960500Y-2072000D02*
X+1087500Y-2072000D01*
X+979099Y-2027099D02*
X+1068901Y-2116901D01*
X+979099Y-2116901D02*
X+1068901Y-2027099D01*
X+1024000Y-1754500D02*
X+1024000Y-1881500D01*
X+960500Y-1818000D02*
X+1087500Y-1818000D01*
X+979099Y-1773099D02*
X+1068901Y-1862901D01*
X+979099Y-1862901D02*
X+1068901Y-1773099D01*
X+1024000Y-1500500D02*
X+1024000Y-1627500D01*
X+960500Y-1564000D02*
X+1087500Y-1564000D01*
X+979099Y-1519099D02*
X+1068901Y-1608901D01*
X+979099Y-1608901D02*
X+1068901Y-1519099D01*
X+1024000Y-1246500D02*
X+1024000Y-1373500D01*
X+960500Y-1310000D02*
X+1087500Y-1310000D01*
X+979099Y-1265099D02*
X+1068901Y-1354901D01*
X+979099Y-1354901D02*
X+1068901Y-1265099D01*
X+1024000Y-992500D02*
X+1024000Y-1119500D01*
X+960500Y-1056000D02*
X+1087500Y-1056000D01*
X+979099Y-1011099D02*
X+1068901Y-1100901D01*
X+979099Y-1100901D02*
X+1068901Y-1011099D01*
X+1024000Y-738500D02*
X+1024000Y-865500D01*
X+960500Y-802000D02*
X+1087500Y-802000D01*
X+979099Y-757099D02*
X+1068901Y-846901D01*
X+979099Y-846901D02*
X+1068901Y-757099D01*
X+1024000Y-484500D02*
X+1024000Y-611500D01*
X+960500Y-548000D02*
X+1087500Y-548000D01*
X+979099Y-503099D02*
X+1068901Y-592901D01*
X+979099Y-592901D02*
X+1068901Y-503099D01*
X+1024000Y-230500D02*
X+1024000Y-357500D01*
X+960500Y-294000D02*
X+1087500Y-294000D01*
X+979099Y-249099D02*
X+1068901Y-338901D01*
X+979099Y-338901D02*
X+1068901Y-249099D01*
X+1024000Y+23500D02*
X+1024000Y-103500D01*
X+960500Y-40000D02*
X+1087500Y-40000D01*
X+979099Y+4901D02*
X+1068901Y-84901D01*
X+979099Y-84901D02*
X+1068901Y+4901D01*
X+1024000Y+277500D02*
X+1024000Y+150500D01*
X+960500Y+214000D02*
X+1087500Y+214000D01*
X+979099Y+258901D02*
X+1068901Y+169099D01*
X+979099Y+169099D02*
X+1068901Y+258901D01*
X+1024000Y+531500D02*
X+1024000Y+404500D01*
X+960500Y+468000D02*
X+1087500Y+468000D01*
X+979099Y+512901D02*
X+1068901Y+423099D01*
X+979099Y+423099D02*
X+1068901Y+512901D01*
X+1024000Y+785500D02*
X+1024000Y+658500D01*
X+960500Y+722000D02*
X+1087500Y+722000D01*
X+979099Y+766901D02*
X+1068901Y+677099D01*
X+979099Y+677099D02*
X+1068901Y+766901D01*
X+1024000Y+1039500D02*
X+1024000Y+912500D01*
X+960500Y+976000D02*
X+1087500Y+976000D01*
X+979099Y+1020901D02*
X+1068901Y+931099D01*
X+979099Y+931099D02*
X+1068901Y+1020901D01*
X+1024000Y+1293500D02*
X+1024000Y+1166500D01*
X+960500Y+1230000D02*
X+1087500Y+1230000D01*
X+979099Y+1274901D02*
X+1068901Y+1185099D01*
X+979099Y+1185099D02*
X+1068901Y+1274901D01*
X+1024000Y+1547500D02*
X+1024000Y+1420500D01*
X+960500Y+1484000D02*
X+1087500Y+1484000D01*
X+979099Y+1528901D02*
X+1068901Y+1439099D01*
X+979099Y+1439099D02*
X+1068901Y+1528901D01*
X+1024000Y+1801500D02*
X+1024000Y+1674500D01*
X+960500Y+1738000D02*
X+1087500Y+1738000D01*
X+979099Y+1782901D02*
X+1068901Y+1693099D01*
X+979099Y+1693099D02*
X+1068901Y+1782901D01*
X+1024000Y+2055500D02*
X+1024000Y+1928500D01*
X+960500Y+1992000D02*
X+1087500Y+1992000D01*
X+979099Y+2036901D02*
X+1068901Y+1947099D01*
X+979099Y+1947099D02*
X+1068901Y+2036901D01*
X+1024000Y+2309500D02*
X+1024000Y+2182500D01*
X+960500Y+2246000D02*
X+1087500Y+2246000D01*
X+979099Y+2290901D02*
X+1068901Y+2201099D01*
X+979099Y+2201099D02*
X+1068901Y+2290901D01*
X+979099Y+2544901D02*
X+1068901Y+2455099D01*
X+979099Y+2455099D02*
X+1068901Y+2544901D01*
X-1540901Y+3056901D02*
X-1451099Y+2967099D01*
X-1540901Y+2967099D02*
X-1451099Y+3056901D01*
X-1540901Y+2802901D02*
X-1451099Y+2713099D01*
X-1540901Y+2713099D02*
X-1451099Y+2802901D01*
X-1540901Y+2548901D02*
X-1451099Y+2459099D01*
X-1540901Y+2459099D02*
X-1451099Y+2548901D01*
X-1540901Y+2294901D02*
X-1451099Y+2205099D01*
X-1540901Y+2205099D02*
X-1451099Y+2294901D01*
X-1540901Y+2040901D02*
X-1451099Y+1951099D01*
X-1540901Y+1951099D02*
X-1451099Y+2040901D01*
X-1286901Y+2040901D02*
X-1197099Y+1951099D01*
X-1286901Y+1951099D02*
X-1197099Y+2040901D01*
X-1286901Y+2294901D02*
X-1197099Y+2205099D01*
X-1286901Y+2205099D02*
X-1197099Y+2294901D01*
X-1286901Y+2548901D02*
X-1197099Y+2459099D01*
X-1286901Y+2459099D02*
X-1197099Y+2548901D01*
X-1286901Y+2802901D02*
X-1197099Y+2713099D01*
X-1286901Y+2713099D02*
X-1197099Y+2802901D01*
X-1286901Y+3056901D02*
X-1197099Y+2967099D01*
X-1286901Y+2967099D02*
X-1197099Y+3056901D01*
X-1794901Y-1201099D02*
X-1705099Y-1290901D01*
X-1794901Y-1290901D02*
X-1705099Y-1201099D01*
X-1794901Y-1455099D02*
X-1705099Y-1544901D01*
X-1794901Y-1544901D02*
X-1705099Y-1455099D01*
X-1794901Y-1709099D02*
X-1705099Y-1798901D01*
X-1794901Y-1798901D02*
X-1705099Y-1709099D01*
X-1794901Y-1963099D02*
X-1705099Y-2052901D01*
X-1794901Y-2052901D02*
X-1705099Y-1963099D01*
X-1794901Y-2217099D02*
X-1705099Y-2306901D01*
X-1794901Y-2306901D02*
X-1705099Y-2217099D01*
X-1540901Y-2217099D02*
X-1451099Y-2306901D01*
X-1540901Y-2306901D02*
X-1451099Y-2217099D01*
X-1540901Y-1963099D02*
X-1451099Y-2052901D01*
X-1540901Y-2052901D02*
X-1451099Y-1963099D01*
X-1540901Y-1709099D02*
X-1451099Y-1798901D01*
X-1540901Y-1798901D02*
X-1451099Y-1709099D01*
X-1540901Y-1455099D02*
X-1451099Y-1544901D01*
X-1540901Y-1544901D02*
X-1451099Y-1455099D01*
X-1540901Y-1201099D02*
X-1451099Y-1290901D01*
X-1540901Y-1290901D02*
X-1451099Y-1201099D01*
X+2455099Y+3044901D02*
X+2544901Y+2955099D01*
X+2455099Y+2955099D02*
X+2544901Y+3044901D01*
X+2455099Y+2790901D02*
X+2544901Y+2701099D01*
X+2455099Y+2701099D02*
X+2544901Y+2790901D01*
X+2455099Y+2536901D02*
X+2544901Y+2447099D01*
X+2455099Y+2447099D02*
X+2544901Y+2536901D01*
X+2455099Y+2282901D02*
X+2544901Y+2193099D01*
X+2455099Y+2193099D02*
X+2544901Y+2282901D01*
X+2455099Y+2028901D02*
X+2544901Y+1939099D01*
X+2455099Y+1939099D02*
X+2544901Y+2028901D01*
X+2709099Y+2028901D02*
X+2798901Y+1939099D01*
X+2709099Y+1939099D02*
X+2798901Y+2028901D01*
X+2709099Y+2282901D02*
X+2798901Y+2193099D01*
X+2709099Y+2193099D02*
X+2798901Y+2282901D01*
X+2709099Y+2536901D02*
X+2798901Y+2447099D01*
X+2709099Y+2447099D02*
X+2798901Y+2536901D01*
X+2709099Y+2790901D02*
X+2798901Y+2701099D01*
X+2709099Y+2701099D02*
X+2798901Y+2790901D01*
X+2709099Y+3044901D02*
X+2798901Y+2955099D01*
X+2709099Y+2955099D02*
X+2798901Y+3044901D01*
X+2709099Y-1717099D02*
X+2798901Y-1806901D01*
X+2709099Y-1806901D02*
X+2798901Y-1717099D01*
X+2709099Y-1463099D02*
X+2798901Y-1552901D01*
X+2709099Y-1552901D02*
X+2798901Y-1463099D01*
X+2709099Y-1209099D02*
X+2798901Y-1298901D01*
X+2709099Y-1298901D02*
X+2798901Y-1209099D01*
X+2709099Y-955099D02*
X+2798901Y-1044901D01*
X+2709099Y-1044901D02*
X+2798901Y-955099D01*
X+2709099Y-701099D02*
X+2798901Y-790901D01*
X+2709099Y-790901D02*
X+2798901Y-701099D01*
X+2455099Y-701099D02*
X+2544901Y-790901D01*
X+2455099Y-790901D02*
X+2544901Y-701099D01*
X+2455099Y-955099D02*
X+2544901Y-1044901D01*
X+2455099Y-1044901D02*
X+2544901Y-955099D01*
X+2455099Y-1209099D02*
X+2544901Y-1298901D01*
X+2455099Y-1298901D02*
X+2544901Y-1209099D01*
X+2455099Y-1463099D02*
X+2544901Y-1552901D01*
X+2455099Y-1552901D02*
X+2544901Y-1463099D01*
X+2455099Y-1717099D02*
X+2544901Y-1806901D01*
X+2455099Y-1806901D02*
X+2544901Y-1717099D01*
X-1500000Y+813500D02*
X-1500000Y+686500D01*
X-1563500Y+750000D02*
X-1436500Y+750000D01*
X-1544901Y+794901D02*
X-1455099Y+705099D01*
X-1544901Y+705099D02*
X-1455099Y+794901D01*
X-2516000Y+813500D02*
X-2516000Y+686500D01*
X-2579500Y+750000D02*
X-2452500Y+750000D01*
X-2560901Y+794901D02*
X-2471099Y+705099D01*
X-2560901Y+705099D02*
X-2471099Y+794901D01*
X-1750000Y+1381700D02*
X-1750000Y+1254700D01*
X-1813500Y+1318200D02*
X-1686500Y+1318200D01*
X-1794901Y+1363101D02*
X-1705099Y+1273299D01*
X-1794901Y+1273299D02*
X-1705099Y+1363101D01*
X-1750000Y+1635700D02*
X-1750000Y+1508700D01*
X-1813500Y+1572200D02*
X-1686500Y+1572200D01*
X-1794901Y+1617101D02*
X-1705099Y+1527299D01*
X-1794901Y+1527299D02*
X-1705099Y+1617101D01*
X-2436500Y+1318200D02*
X-2436717Y+1323447D01*
X-2438482Y+1333942D01*
X-2442174Y+1344437D01*
X-2448202Y+1354932D01*
X-2457424Y+1365312D01*
X-2467919Y+1373000D01*
X-2478414Y+1377918D01*
X-2488909Y+1380724D01*
X-2499404Y+1381697D01*
X-2500000Y+1381700D01*
X-2563500Y+1318200D02*
X-2563283Y+1323447D01*
X-2561518Y+1333942D01*
X-2557826Y+1344437D01*
X-2551798Y+1354932D01*
X-2542576Y+1365312D01*
X-2532081Y+1373000D01*
X-2521586Y+1377918D01*
X-2511091Y+1380724D01*
X-2500596Y+1381697D01*
X-2500000Y+1381700D01*
X-2563500Y+1318200D02*
X-2563283Y+1312953D01*
X-2561518Y+1302458D01*
X-2557826Y+1291963D01*
X-2551798Y+1281468D01*
X-2542576Y+1271088D01*
X-2532081Y+1263400D01*
X-2521586Y+1258482D01*
X-2511091Y+1255676D01*
X-2500596Y+1254703D01*
X-2500000Y+1254700D01*
X-2436500Y+1318200D02*
X-2436717Y+1312953D01*
X-2438482Y+1302458D01*
X-2442174Y+1291963D01*
X-2448202Y+1281468D01*
X-2457424Y+1271088D01*
X-2467919Y+1263400D01*
X-2478414Y+1258482D01*
X-2488909Y+1255676D01*
X-2499404Y+1254703D01*
X-2500000Y+1254700D01*
X-2500000Y+1381700D02*
X-2500000Y+1254700D01*
X-2563500Y+1318200D02*
X-2436500Y+1318200D01*
X-2436500Y+1750000D02*
X-2436717Y+1755247D01*
X-2438482Y+1765742D01*
X-2442174Y+1776237D01*
X-2448202Y+1786732D01*
X-2457424Y+1797112D01*
X-2467919Y+1804800D01*
X-2478414Y+1809718D01*
X-2488909Y+1812524D01*
X-2499404Y+1813497D01*
X-2500000Y+1813500D01*
X-2563500Y+1750000D02*
X-2563283Y+1755247D01*
X-2561518Y+1765742D01*
X-2557826Y+1776237D01*
X-2551798Y+1786732D01*
X-2542576Y+1797112D01*
X-2532081Y+1804800D01*
X-2521586Y+1809718D01*
X-2511091Y+1812524D01*
X-2500596Y+1813497D01*
X-2500000Y+1813500D01*
X-2563500Y+1750000D02*
X-2563283Y+1744753D01*
X-2561518Y+1734258D01*
X-2557826Y+1723763D01*
X-2551798Y+1713268D01*
X-2542576Y+1702888D01*
X-2532081Y+1695200D01*
X-2521586Y+1690282D01*
X-2511091Y+1687476D01*
X-2500596Y+1686503D01*
X-2500000Y+1686500D01*
X-2436500Y+1750000D02*
X-2436717Y+1744753D01*
X-2438482Y+1734258D01*
X-2442174Y+1723763D01*
X-2448202Y+1713268D01*
X-2457424Y+1702888D01*
X-2467919Y+1695200D01*
X-2478414Y+1690282D01*
X-2488909Y+1687476D01*
X-2499404Y+1686503D01*
X-2500000Y+1686500D01*
X-2500000Y+1813500D02*
X-2500000Y+1686500D01*
X-2563500Y+1750000D02*
X-2436500Y+1750000D01*
X-2294901Y+298901D02*
X-2205099Y+209099D01*
X-2294901Y+209099D02*
X-2205099Y+298901D01*
X-2294901Y+44901D02*
X-2205099Y-44901D01*
X-2294901Y-44901D02*
X-2205099Y+44901D01*
X-2294901Y-209099D02*
X-2205099Y-298901D01*
X-2294901Y-298901D02*
X-2205099Y-209099D01*
X-2294901Y-463099D02*
X-2205099Y-552901D01*
X-2294901Y-552901D02*
X-2205099Y-463099D01*
X-2294901Y-717099D02*
X-2205099Y-806901D01*
X-2294901Y-806901D02*
X-2205099Y-717099D01*
X-2040901Y-717099D02*
X-1951099Y-806901D01*
X-2040901Y-806901D02*
X-1951099Y-717099D01*
X-2040901Y-463099D02*
X-1951099Y-552901D01*
X-2040901Y-552901D02*
X-1951099Y-463099D01*
X-2040901Y-209099D02*
X-1951099Y-298901D01*
X-2040901Y-298901D02*
X-1951099Y-209099D01*
X-2040901Y+44901D02*
X-1951099Y-44901D01*
X-2040901Y-44901D02*
X-1951099Y+44901D01*
X-2040901Y+298901D02*
X-1951099Y+209099D01*
X-2040901Y+209099D02*
X-1951099Y+298901D01*
X+2705099Y+1044901D02*
X+2794901Y+955099D01*
X+2705099Y+955099D02*
X+2794901Y+1044901D01*
X+2705099Y+790901D02*
X+2794901Y+701099D01*
X+2705099Y+701099D02*
X+2794901Y+790901D01*
X+2705099Y+536901D02*
X+2794901Y+447099D01*
X+2705099Y+447099D02*
X+2794901Y+536901D01*
X-2044901Y+2540901D02*
X-1955099Y+2451099D01*
X-2044901Y+2451099D02*
X-1955099Y+2540901D01*
X-2044901Y+2794901D02*
X-1955099Y+2705099D01*
X-2044901Y+2705099D02*
X-1955099Y+2794901D01*
X-2544901Y+2544901D02*
X-2455099Y+2455099D01*
X-2544901Y+2455099D02*
X-2455099Y+2544901D01*
X-2544901Y+2798901D02*
X-2455099Y+2709099D01*
X-2544901Y+2709099D02*
X-2455099Y+2798901D01*
X-3250000Y-2750000D02*
X+3500000Y-2750000D01*
X+3500000Y+3750000D01*
X-3250000Y+3750000D01*
X-3250000Y-2750000D01*
D26*
X-3262700Y-4274000D02*
X-618560Y-4274000D01*
X-618560Y-3029400D01*
X-3262700Y-3029400D01*
X-3262700Y-4274000D01*
D27*
X-2795338Y-3029400D02*
X-2795338Y-4274000D01*
X-1982538Y-3029400D02*
X-1982538Y-4274000D01*
X-1149418Y-3029400D02*
X-1149418Y-4274000D01*
X-3262700Y-3302450D02*
X-618560Y-3302450D01*
X-3262700Y-3543750D02*
X-618560Y-3543750D01*
X-3262700Y-3785050D02*
X-618560Y-3785050D01*
X-3262700Y-4026350D02*
X-618560Y-4026350D01*
D26*
X-3205550Y-3193230D02*
X-3190310Y-3208470D01*
X-3129350Y-3208470D01*
X-3114110Y-3193230D01*
X-3114110Y-3177990D01*
X-3129350Y-3162750D01*
X-3190310Y-3162750D01*
X-3205550Y-3147510D01*
X-3205550Y-3132270D01*
X-3190310Y-3117030D01*
X-3129350Y-3117030D01*
X-3114110Y-3132270D01*
X-2992190Y-3117030D02*
X-3083630Y-3208470D01*
X-3083630Y-3117030D02*
X-3037910Y-3162750D01*
X-2961710Y-3208470D02*
X-2961710Y-3117030D01*
X-2915990Y-3162750D01*
X-2870270Y-3117030D01*
X-2870270Y-3208470D01*
X-2738190Y-3193230D02*
X-2722950Y-3208470D01*
X-2661990Y-3208470D01*
X-2646750Y-3193230D01*
X-2646750Y-3177990D01*
X-2661990Y-3162750D01*
X-2722950Y-3162750D01*
X-2738190Y-3147510D01*
X-2738190Y-3132270D01*
X-2722950Y-3117030D01*
X-2661990Y-3117030D01*
X-2646750Y-3132270D01*
X-2601030Y-3117030D02*
X-2540070Y-3117030D01*
X-2570550Y-3117030D02*
X-2570550Y-3208470D01*
X-2601030Y-3208470D02*
X-2540070Y-3208470D01*
X-2494350Y-3117030D02*
X-2402910Y-3117030D01*
X-2494350Y-3208470D01*
X-2402910Y-3208470D01*
X-2280990Y-3208470D02*
X-2372430Y-3208470D01*
X-2372430Y-3117030D01*
X-2280990Y-3117030D01*
X-2372430Y-3162750D02*
X-2311470Y-3162750D01*
X-1925390Y-3208470D02*
X-1925390Y-3117030D01*
X-1849190Y-3117030D01*
X-1833950Y-3132270D01*
X-1833950Y-3147510D01*
X-1849190Y-3162750D01*
X-1925390Y-3162750D01*
X-1803470Y-3117030D02*
X-1803470Y-3208470D01*
X-1712030Y-3208470D01*
X-1681550Y-3208470D02*
X-1681550Y-3147510D01*
X-1651070Y-3117030D01*
X-1620590Y-3117030D01*
X-1590110Y-3147510D01*
X-1590110Y-3208470D01*
X-1681550Y-3177990D02*
X-1590110Y-3177990D01*
X-1559630Y-3117030D02*
X-1468190Y-3117030D01*
X-1513910Y-3117030D02*
X-1513910Y-3208470D01*
X-1346270Y-3208470D02*
X-1437710Y-3208470D01*
X-1437710Y-3117030D01*
X-1346270Y-3117030D01*
X-1437710Y-3162750D02*
X-1376750Y-3162750D01*
X-1315790Y-3208470D02*
X-1315790Y-3117030D01*
X-1254830Y-3117030D01*
X-1224350Y-3147510D01*
X-1224350Y-3177990D01*
X-1254830Y-3208470D01*
X-1315790Y-3208470D01*
X-1092270Y-3147510D02*
X-1061790Y-3117030D01*
X-1031310Y-3117030D01*
X-1000830Y-3147510D01*
X-1000830Y-3177990D01*
X-1031310Y-3208470D01*
X-1061790Y-3208470D01*
X-1092270Y-3177990D01*
X-1092270Y-3147510D01*
X-1031310Y-3177990D02*
X-1000830Y-3208470D01*
X-970350Y-3117030D02*
X-878910Y-3117030D01*
X-924630Y-3117030D02*
X-924630Y-3208470D01*
X-756990Y-3117030D02*
X-848430Y-3208470D01*
X-848430Y-3117030D02*
X-802710Y-3162750D01*
D16*
X-3016320Y-3353250D02*
X-3016320Y-3480250D01*
X-3079820Y-3416750D02*
X-2952820Y-3416750D01*
D26*
X-2719140Y-3442150D02*
X-2719140Y-3391350D01*
X-2706440Y-3378650D01*
X-2655640Y-3378650D01*
X-2642940Y-3391350D01*
X-2642940Y-3442150D01*
X-2655640Y-3454850D01*
X-2706440Y-3454850D01*
X-2719140Y-3442150D01*
X-2719140Y-3454850D02*
X-2642940Y-3378650D01*
X-2579440Y-3442150D02*
X-2566740Y-3442150D01*
X-2566740Y-3454850D01*
X-2579440Y-3454850D01*
X-2579440Y-3442150D01*
X-2439740Y-3378650D02*
X-2503240Y-3378650D01*
X-2503240Y-3404050D01*
X-2452440Y-3404050D01*
X-2439740Y-3416750D01*
X-2439740Y-3442150D01*
X-2452440Y-3454850D01*
X-2490540Y-3454850D01*
X-2503240Y-3442150D01*
X-2414340Y-3442150D02*
X-2414340Y-3391350D01*
X-2401640Y-3378650D01*
X-2350840Y-3378650D01*
X-2338140Y-3391350D01*
X-2338140Y-3442150D01*
X-2350840Y-3454850D01*
X-2401640Y-3454850D01*
X-2414340Y-3442150D01*
X-2414340Y-3454850D02*
X-2338140Y-3378650D01*
X-2287340Y-3416750D02*
X-2300040Y-3404050D01*
X-2300040Y-3391350D01*
X-2287340Y-3378650D01*
X-2249240Y-3378650D01*
X-2236540Y-3391350D01*
X-2236540Y-3404050D01*
X-2249240Y-3416750D01*
X-2287340Y-3416750D01*
X-2300040Y-3429450D01*
X-2300040Y-3442150D01*
X-2287340Y-3454850D01*
X-2249240Y-3454850D01*
X-2236540Y-3442150D01*
X-2236540Y-3429450D01*
X-2249240Y-3416750D01*
X-2211140Y-3454850D02*
X-2211140Y-3404050D01*
X-2211140Y-3416750D02*
X-2198440Y-3404050D01*
X-2173040Y-3429450D01*
X-2147640Y-3404050D01*
X-2134940Y-3416750D01*
X-2134940Y-3454850D01*
X-2109540Y-3454850D02*
X-2109540Y-3404050D01*
X-2109540Y-3416750D02*
X-2096840Y-3404050D01*
X-2071440Y-3429450D01*
X-2046040Y-3404050D01*
X-2033340Y-3416750D01*
X-2033340Y-3454850D01*
X-1817440Y-3378650D02*
X-1893640Y-3454850D01*
X-1893640Y-3378650D02*
X-1855540Y-3416750D01*
X-1715840Y-3454850D02*
X-1792040Y-3454850D01*
X-1792040Y-3378650D01*
X-1715840Y-3378650D01*
X-1792040Y-3416750D02*
X-1741240Y-3416750D01*
X-1690440Y-3442150D02*
X-1677740Y-3454850D01*
X-1626940Y-3454850D01*
X-1614240Y-3442150D01*
X-1614240Y-3429450D01*
X-1626940Y-3416750D01*
X-1677740Y-3416750D01*
X-1690440Y-3404050D01*
X-1690440Y-3391350D01*
X-1677740Y-3378650D01*
X-1626940Y-3378650D01*
X-1614240Y-3391350D01*
X-1035120Y-3391350D02*
X-1022420Y-3378650D01*
X-984320Y-3378650D01*
X-971620Y-3391350D01*
X-971620Y-3404050D01*
X-984320Y-3416750D01*
X-1022420Y-3416750D01*
X-1035120Y-3429450D01*
X-1035120Y-3454850D01*
X-971620Y-3454850D01*
D16*
X-3061221Y-3613149D02*
X-2971419Y-3702951D01*
X-3061221Y-3702951D02*
X-2971419Y-3613149D01*
D26*
X-2719140Y-3683450D02*
X-2719140Y-3632650D01*
X-2706440Y-3619950D01*
X-2655640Y-3619950D01*
X-2642940Y-3632650D01*
X-2642940Y-3683450D01*
X-2655640Y-3696150D01*
X-2706440Y-3696150D01*
X-2719140Y-3683450D01*
X-2719140Y-3696150D02*
X-2642940Y-3619950D01*
X-2579440Y-3683450D02*
X-2566740Y-3683450D01*
X-2566740Y-3696150D01*
X-2579440Y-3696150D01*
X-2579440Y-3683450D01*
X-2439740Y-3632650D02*
X-2452440Y-3619950D01*
X-2490540Y-3619950D01*
X-2503240Y-3632650D01*
X-2503240Y-3683450D01*
X-2490540Y-3696150D01*
X-2452440Y-3696150D01*
X-2439740Y-3683450D01*
X-2439740Y-3670750D01*
X-2452440Y-3658050D01*
X-2503240Y-3658050D01*
X-2401640Y-3632650D02*
X-2388940Y-3619950D01*
X-2350840Y-3619950D01*
X-2338140Y-3632650D01*
X-2338140Y-3645350D01*
X-2350840Y-3658050D01*
X-2338140Y-3670750D01*
X-2338140Y-3683450D01*
X-2350840Y-3696150D01*
X-2388940Y-3696150D01*
X-2401640Y-3683450D01*
X-2376240Y-3658050D02*
X-2350840Y-3658050D01*
X-2236540Y-3619950D02*
X-2300040Y-3619950D01*
X-2300040Y-3645350D01*
X-2249240Y-3645350D01*
X-2236540Y-3658050D01*
X-2236540Y-3683450D01*
X-2249240Y-3696150D01*
X-2287340Y-3696150D01*
X-2300040Y-3683450D01*
X-2211140Y-3696150D02*
X-2211140Y-3645350D01*
X-2211140Y-3658050D02*
X-2198440Y-3645350D01*
X-2173040Y-3670750D01*
X-2147640Y-3645350D01*
X-2134940Y-3658050D01*
X-2134940Y-3696150D01*
X-2109540Y-3696150D02*
X-2109540Y-3645350D01*
X-2109540Y-3658050D02*
X-2096840Y-3645350D01*
X-2071440Y-3670750D01*
X-2046040Y-3645350D01*
X-2033340Y-3658050D01*
X-2033340Y-3696150D01*
X-1817440Y-3619950D02*
X-1893640Y-3696150D01*
X-1893640Y-3619950D02*
X-1855540Y-3658050D01*
X-1715840Y-3696150D02*
X-1792040Y-3696150D01*
X-1792040Y-3619950D01*
X-1715840Y-3619950D01*
X-1792040Y-3658050D02*
X-1741240Y-3658050D01*
X-1690440Y-3683450D02*
X-1677740Y-3696150D01*
X-1626940Y-3696150D01*
X-1614240Y-3683450D01*
X-1614240Y-3670750D01*
X-1626940Y-3658050D01*
X-1677740Y-3658050D01*
X-1690440Y-3645350D01*
X-1690440Y-3632650D01*
X-1677740Y-3619950D01*
X-1626940Y-3619950D01*
X-1614240Y-3632650D01*
X-971620Y-3619950D02*
X-1035120Y-3619950D01*
X-1035120Y-3645350D01*
X-984320Y-3645350D01*
X-971620Y-3658050D01*
X-971620Y-3683450D01*
X-984320Y-3696150D01*
X-1022420Y-3696150D01*
X-1035120Y-3683450D01*
X-920820Y-3658050D02*
X-933520Y-3645350D01*
X-933520Y-3632650D01*
X-920820Y-3619950D01*
X-882720Y-3619950D01*
X-870020Y-3632650D01*
X-870020Y-3645350D01*
X-882720Y-3658050D01*
X-920820Y-3658050D01*
X-933520Y-3670750D01*
X-933520Y-3683450D01*
X-920820Y-3696150D01*
X-882720Y-3696150D01*
X-870020Y-3683450D01*
X-870020Y-3670750D01*
X-882720Y-3658050D01*
D16*
X-3016320Y-3835850D02*
X-3016320Y-3962850D01*
X-3079820Y-3899350D02*
X-2952820Y-3899350D01*
X-3061221Y-3854449D02*
X-2971419Y-3944251D01*
X-3061221Y-3944251D02*
X-2971419Y-3854449D01*
D26*
X-2719140Y-3924750D02*
X-2719140Y-3873950D01*
X-2706440Y-3861250D01*
X-2655640Y-3861250D01*
X-2642940Y-3873950D01*
X-2642940Y-3924750D01*
X-2655640Y-3937450D01*
X-2706440Y-3937450D01*
X-2719140Y-3924750D01*
X-2719140Y-3937450D02*
X-2642940Y-3861250D01*
X-2579440Y-3924750D02*
X-2566740Y-3924750D01*
X-2566740Y-3937450D01*
X-2579440Y-3937450D01*
X-2579440Y-3924750D01*
X-2503240Y-3861250D02*
X-2439740Y-3861250D01*
X-2439740Y-3873950D01*
X-2503240Y-3937450D01*
X-2338140Y-3873950D02*
X-2350840Y-3861250D01*
X-2388940Y-3861250D01*
X-2401640Y-3873950D01*
X-2401640Y-3924750D01*
X-2388940Y-3937450D01*
X-2350840Y-3937450D01*
X-2338140Y-3924750D01*
X-2338140Y-3912050D01*
X-2350840Y-3899350D01*
X-2401640Y-3899350D01*
X-2300040Y-3873950D02*
X-2287340Y-3861250D01*
X-2249240Y-3861250D01*
X-2236540Y-3873950D01*
X-2236540Y-3886650D01*
X-2249240Y-3899350D01*
X-2287340Y-3899350D01*
X-2300040Y-3912050D01*
X-2300040Y-3937450D01*
X-2236540Y-3937450D01*
X-2211140Y-3937450D02*
X-2211140Y-3886650D01*
X-2211140Y-3899350D02*
X-2198440Y-3886650D01*
X-2173040Y-3912050D01*
X-2147640Y-3886650D01*
X-2134940Y-3899350D01*
X-2134940Y-3937450D01*
X-2109540Y-3937450D02*
X-2109540Y-3886650D01*
X-2109540Y-3899350D02*
X-2096840Y-3886650D01*
X-2071440Y-3912050D01*
X-2046040Y-3886650D01*
X-2033340Y-3899350D01*
X-2033340Y-3937450D01*
X-1817440Y-3861250D02*
X-1893640Y-3937450D01*
X-1893640Y-3861250D02*
X-1855540Y-3899350D01*
X-1715840Y-3937450D02*
X-1792040Y-3937450D01*
X-1792040Y-3861250D01*
X-1715840Y-3861250D01*
X-1792040Y-3899350D02*
X-1741240Y-3899350D01*
X-1690440Y-3924750D02*
X-1677740Y-3937450D01*
X-1626940Y-3937450D01*
X-1614240Y-3924750D01*
X-1614240Y-3912050D01*
X-1626940Y-3899350D01*
X-1677740Y-3899350D01*
X-1690440Y-3886650D01*
X-1690440Y-3873950D01*
X-1677740Y-3861250D01*
X-1626940Y-3861250D01*
X-1614240Y-3873950D01*
X-971620Y-3912050D02*
X-1047820Y-3912050D01*
X-997020Y-3861250D01*
X-997020Y-3937450D01*
X-933520Y-3873950D02*
X-920820Y-3861250D01*
X-882720Y-3861250D01*
X-870020Y-3873950D01*
X-870020Y-3886650D01*
X-882720Y-3899350D01*
X-870020Y-3912050D01*
X-870020Y-3924750D01*
X-882720Y-3937450D01*
X-920820Y-3937450D01*
X-933520Y-3924750D01*
X-908120Y-3899350D02*
X-882720Y-3899350D01*
D16*
X-2952820Y-4140650D02*
X-2953037Y-4135403D01*
X-2954802Y-4124908D01*
X-2958494Y-4114413D01*
X-2964522Y-4103918D01*
X-2973744Y-4093538D01*
X-2984239Y-4085850D01*
X-2994734Y-4080932D01*
X-3005229Y-4078126D01*
X-3015724Y-4077153D01*
X-3016320Y-4077150D01*
X-3079820Y-4140650D02*
X-3079603Y-4135403D01*
X-3077838Y-4124908D01*
X-3074146Y-4114413D01*
X-3068118Y-4103918D01*
X-3058896Y-4093538D01*
X-3048401Y-4085850D01*
X-3037906Y-4080932D01*
X-3027411Y-4078126D01*
X-3016916Y-4077153D01*
X-3016320Y-4077150D01*
X-3079820Y-4140650D02*
X-3079603Y-4145897D01*
X-3077838Y-4156392D01*
X-3074146Y-4166887D01*
X-3068118Y-4177382D01*
X-3058896Y-4187762D01*
X-3048401Y-4195450D01*
X-3037906Y-4200368D01*
X-3027411Y-4203174D01*
X-3016916Y-4204147D01*
X-3016320Y-4204150D01*
X-2952820Y-4140650D02*
X-2953037Y-4145897D01*
X-2954802Y-4156392D01*
X-2958494Y-4166887D01*
X-2964522Y-4177382D01*
X-2973744Y-4187762D01*
X-2984239Y-4195450D01*
X-2994734Y-4200368D01*
X-3005229Y-4203174D01*
X-3015724Y-4204147D01*
X-3016320Y-4204150D01*
X-3016320Y-4077150D02*
X-3016320Y-4204150D01*
X-3079820Y-4140650D02*
X-2952820Y-4140650D01*
D26*
X-2693740Y-4127950D02*
X-2668340Y-4102550D01*
X-2668340Y-4178750D01*
X-2579440Y-4166050D02*
X-2566740Y-4166050D01*
X-2566740Y-4178750D01*
X-2579440Y-4178750D01*
X-2579440Y-4166050D01*
X-2515940Y-4166050D02*
X-2515940Y-4115250D01*
X-2503240Y-4102550D01*
X-2452440Y-4102550D01*
X-2439740Y-4115250D01*
X-2439740Y-4166050D01*
X-2452440Y-4178750D01*
X-2503240Y-4178750D01*
X-2515940Y-4166050D01*
X-2515940Y-4178750D02*
X-2439740Y-4102550D01*
X-2388940Y-4127950D02*
X-2363540Y-4102550D01*
X-2363540Y-4178750D01*
X-2236540Y-4115250D02*
X-2249240Y-4102550D01*
X-2287340Y-4102550D01*
X-2300040Y-4115250D01*
X-2300040Y-4166050D01*
X-2287340Y-4178750D01*
X-2249240Y-4178750D01*
X-2236540Y-4166050D01*
X-2236540Y-4153350D01*
X-2249240Y-4140650D01*
X-2300040Y-4140650D01*
X-2211140Y-4178750D02*
X-2211140Y-4127950D01*
X-2211140Y-4140650D02*
X-2198440Y-4127950D01*
X-2173040Y-4153350D01*
X-2147640Y-4127950D01*
X-2134940Y-4140650D01*
X-2134940Y-4178750D01*
X-2109540Y-4178750D02*
X-2109540Y-4127950D01*
X-2109540Y-4140650D02*
X-2096840Y-4127950D01*
X-2071440Y-4153350D01*
X-2046040Y-4127950D01*
X-2033340Y-4140650D01*
X-2033340Y-4178750D01*
X-1817440Y-4102550D02*
X-1893640Y-4178750D01*
X-1893640Y-4102550D02*
X-1855540Y-4140650D01*
X-1715840Y-4178750D02*
X-1792040Y-4178750D01*
X-1792040Y-4102550D01*
X-1715840Y-4102550D01*
X-1792040Y-4140650D02*
X-1741240Y-4140650D01*
X-1690440Y-4166050D02*
X-1677740Y-4178750D01*
X-1626940Y-4178750D01*
X-1614240Y-4166050D01*
X-1614240Y-4153350D01*
X-1626940Y-4140650D01*
X-1677740Y-4140650D01*
X-1690440Y-4127950D01*
X-1690440Y-4115250D01*
X-1677740Y-4102550D01*
X-1626940Y-4102550D01*
X-1614240Y-4115250D01*
X-1035120Y-4115250D02*
X-1022420Y-4102550D01*
X-984320Y-4102550D01*
X-971620Y-4115250D01*
X-971620Y-4127950D01*
X-984320Y-4140650D01*
X-1022420Y-4140650D01*
X-1035120Y-4153350D01*
X-1035120Y-4178750D01*
X-971620Y-4178750D01*
M02*
