M48
METRIC,TZ
T01C0.5080
T02C0.7620
T03C0.6350
T04C1.0160
%
T01
X-13156Y-8743
X-15670Y-1347
T02
X-5000Y+25000
X-5000Y+22460
X-5000Y+19920
X-5000Y+17380
X-5000Y+14840
X-5000Y+12300
X-5000Y+9760
X-5000Y+7220
X-5000Y+4680
X-5000Y+2140
X-5000Y-400
X-5000Y-2940
X-5000Y-5480
X-5000Y-8020
X-5000Y-10560
X-5000Y-13100
X-5000Y-15640
X-5000Y-18180
X-5000Y-20720
X-5000Y-23260
X+10240Y-23260
X+10240Y-20720
X+10240Y-18180
X+10240Y-15640
X+10240Y-13100
X+10240Y-10560
X+10240Y-8020
X+10240Y-5480
X+10240Y-2940
X+10240Y-400
X+10240Y+2140
X+10240Y+4680
X+10240Y+7220
X+10240Y+9760
X+10240Y+12300
X+10240Y+14840
X+10240Y+17380
X+10240Y+19920
X+10240Y+22460
X-15000Y+7500
X-25160Y+7500
X-17500Y+13182
X-17500Y+15722
T03
X+10240Y+25000
X-14960Y+30120
X-14960Y+27580
X-14960Y+25040
X-14960Y+22500
X-14960Y+19960
X-12420Y+19960
X-12420Y+22500
X-12420Y+25040
X-12420Y+27580
X-12420Y+30120
X-17500Y-12460
X-17500Y-15000
X-17500Y-17540
X-17500Y-20080
X-17500Y-22620
X-14960Y-22620
X-14960Y-20080
X-14960Y-17540
X-14960Y-15000
X-14960Y-12460
X+25000Y+30000
X+25000Y+27460
X+25000Y+24920
X+25000Y+22380
X+25000Y+19840
X+27540Y+19840
X+27540Y+22380
X+27540Y+24920
X+27540Y+27460
X+27540Y+30000
X+27540Y-17620
X+27540Y-15080
X+27540Y-12540
X+27540Y-10000
X+27540Y-7460
X+25000Y-7460
X+25000Y-10000
X+25000Y-12540
X+25000Y-15080
X+25000Y-17620
X-22500Y+2540
X-22500Y+0
X-22500Y-2540
X-22500Y-5080
X-22500Y-7620
X-19960Y-7620
X-19960Y-5080
X-19960Y-2540
X-19960Y+0
X-19960Y+2540
X+27500Y+10000
X+27500Y+7460
X+27500Y+4920
X-20000Y+24960
X-20000Y+27500
X-25000Y+25000
X-25000Y+27540
T04
X-25000Y+13182
X-25000Y+17500
M30
