G04 PROTEUS RS274X GERBER FILE*
%FSLAX45Y45*%
%MOMM*%
G01*
%ADD10C,0.508000*%
%ADD11C,1.270000*%
%ADD12R,1.270000X1.270000*%
%ADD13R,1.524000X1.524000*%
%ADD14C,1.524000*%
%ADD15R,1.905000X1.905000*%
%ADD16C,0.203200*%
G36*
X+3426340Y-2676340D02*
X-558587Y-2676340D01*
X-292891Y-2410644D01*
X-292891Y-1391387D01*
X-373001Y-1311277D01*
X-373001Y-1257395D01*
X-447395Y-1183001D01*
X-552605Y-1183001D01*
X-626999Y-1257395D01*
X-626999Y-1362605D01*
X-552605Y-1436999D01*
X-498723Y-1436999D01*
X-498721Y-1437001D01*
X-552605Y-1437001D01*
X-626999Y-1511395D01*
X-626999Y-1616605D01*
X-552605Y-1690999D01*
X-470689Y-1690999D01*
X-470689Y-1691001D01*
X-552605Y-1691001D01*
X-626999Y-1765395D01*
X-626999Y-1819277D01*
X-1137047Y-2329325D01*
X-1298639Y-2329325D01*
X-1106152Y-2136838D01*
X-1106152Y-469782D01*
X-1439963Y-135971D01*
X-1439963Y-88899D01*
X-626999Y-88899D01*
X-626999Y-92605D01*
X-552605Y-166999D01*
X-447395Y-166999D01*
X-373001Y-92605D01*
X-373001Y+12605D01*
X-390247Y+29851D01*
X-188018Y+232080D01*
X-188018Y+1060860D01*
X-373001Y+1245843D01*
X-373001Y+1282605D01*
X-447395Y+1356999D01*
X-552605Y+1356999D01*
X-626999Y+1282605D01*
X-626999Y+1177395D01*
X-552605Y+1103001D01*
X-481603Y+1103001D01*
X-481601Y+1102999D01*
X-552605Y+1102999D01*
X-610728Y+1044876D01*
X-906029Y+1340178D01*
X-906029Y+2060737D01*
X-1115001Y+2269709D01*
X-1115001Y+2376999D01*
X-1368999Y+2376999D01*
X-1368999Y+2123001D01*
X-1219737Y+2123001D01*
X-1219735Y+2122999D01*
X-1368999Y+2122999D01*
X-1368999Y+1958737D01*
X-1369001Y+1958735D01*
X-1369001Y+2122999D01*
X-1622999Y+2122999D01*
X-1622999Y+1869001D01*
X-1458735Y+1869001D01*
X-1514228Y+1813508D01*
X-1687786Y+1813508D01*
X-1911101Y+2036823D01*
X-1911101Y+2369001D01*
X-1873001Y+2369001D01*
X-1873001Y+2622999D01*
X-2126999Y+2622999D01*
X-2126999Y+2369001D01*
X-2088899Y+2369001D01*
X-2088899Y+2214621D01*
X-2373001Y+2498723D01*
X-2373001Y+2626999D01*
X-2626999Y+2626999D01*
X-2626999Y+2373001D01*
X-2498723Y+2373001D01*
X-2088899Y+1963177D01*
X-2088899Y+1844794D01*
X-1881934Y+1637830D01*
X-1889699Y+1630065D01*
X-1889699Y+1514335D01*
X-1820564Y+1445200D01*
X-1889699Y+1376065D01*
X-1889699Y+1260335D01*
X-1807865Y+1178501D01*
X-1692135Y+1178501D01*
X-1610301Y+1260335D01*
X-1610301Y+1376065D01*
X-1679436Y+1445200D01*
X-1610301Y+1514335D01*
X-1610301Y+1630065D01*
X-1615946Y+1635710D01*
X-1440582Y+1635710D01*
X-1330899Y+1745393D01*
X-1330899Y+1044823D01*
X-1486023Y+889699D01*
X-1557865Y+889699D01*
X-1639699Y+807865D01*
X-1639699Y+692135D01*
X-1557865Y+610301D01*
X-1442135Y+610301D01*
X-1360301Y+692135D01*
X-1360301Y+763977D01*
X-1153101Y+971177D01*
X-1153101Y+1869001D01*
X-1115001Y+1869001D01*
X-1115001Y+2018265D01*
X-1083827Y+1987091D01*
X-1083827Y+1266532D01*
X-609450Y+792154D01*
X-626999Y+774605D01*
X-626999Y+720723D01*
X-843827Y+503895D01*
X-2533134Y+503895D01*
X-2675733Y+361296D01*
X-2675733Y+154528D01*
X-2432306Y-88899D01*
X-2389699Y-88899D01*
X-2389699Y-901699D01*
X-1856301Y-901699D01*
X-1856301Y-88899D01*
X-1693961Y-88899D01*
X-1693961Y-187299D01*
X-1619567Y-261693D01*
X-1565685Y-261693D01*
X-1283950Y-543428D01*
X-1283950Y-747262D01*
X-1368226Y-747262D01*
X-1406326Y-785362D01*
X-1442621Y-785362D01*
X-1763560Y-1106301D01*
X-1889699Y-1106301D01*
X-1889699Y-1490797D01*
X-2204211Y-1805309D01*
X-2204211Y-2364845D01*
X-1892716Y-2676340D01*
X-3176340Y-2676340D01*
X-3176340Y+3676340D01*
X+3426340Y+3676340D01*
X+3426340Y-2676340D01*
G37*
%LPC*%
G36*
X-309729Y+3455211D02*
X-91420Y+3236902D01*
X-91420Y+1766858D01*
X-373001Y+1485277D01*
X-373001Y+1431395D01*
X-447395Y+1357001D01*
X-552605Y+1357001D01*
X-626999Y+1431395D01*
X-626999Y+1536605D01*
X-552605Y+1610999D01*
X-498723Y+1610999D01*
X-498721Y+1611001D01*
X-552605Y+1611001D01*
X-626999Y+1685395D01*
X-626999Y+1790605D01*
X-552605Y+1864999D01*
X-447395Y+1864999D01*
X-373001Y+1790605D01*
X-373001Y+1736721D01*
X-269218Y+1840504D01*
X-269218Y+2097060D01*
X-373001Y+1993277D01*
X-373001Y+1939395D01*
X-447395Y+1865001D01*
X-552605Y+1865001D01*
X-626999Y+1939395D01*
X-626999Y+2044605D01*
X-552605Y+2118999D01*
X-498723Y+2118999D01*
X-498721Y+2119001D01*
X-552605Y+2119001D01*
X-626999Y+2193395D01*
X-626999Y+2298605D01*
X-552605Y+2372999D01*
X-447395Y+2372999D01*
X-396728Y+2322332D01*
X-396728Y+2373001D01*
X-626999Y+2373001D01*
X-626999Y+2626999D01*
X-588899Y+2626999D01*
X-588899Y+2936299D01*
X-759945Y+3107345D01*
X-1115001Y+3107345D01*
X-1115001Y+2885001D01*
X-1368999Y+2885001D01*
X-1368999Y+3035823D01*
X-1369001Y+3035821D01*
X-1369001Y+2885001D01*
X-1550350Y+2885001D01*
X-1550348Y+2884999D01*
X-1369001Y+2884999D01*
X-1369001Y+2631001D01*
X-1534040Y+2631001D01*
X-1534038Y+2630999D01*
X-1369001Y+2630999D01*
X-1369001Y+2377001D01*
X-1622999Y+2377001D01*
X-1622999Y+2468516D01*
X-1873001Y+2718518D01*
X-1873001Y+2623001D01*
X-2126999Y+2623001D01*
X-2126999Y+2876999D01*
X-1924279Y+2876999D01*
X-1924279Y+3109888D01*
X-1552918Y+3481249D01*
X-335767Y+3481249D01*
X-309729Y+3455211D01*
G37*
G36*
X-552605Y-167001D02*
X-447395Y-167001D01*
X-373001Y-241395D01*
X-373001Y-346605D01*
X-447395Y-420999D01*
X-552605Y-420999D01*
X-626999Y-346605D01*
X-626999Y-241395D01*
X-552605Y-167001D01*
G37*
G36*
X-552605Y-421001D02*
X-447395Y-421001D01*
X-373001Y-495395D01*
X-373001Y-600605D01*
X-447395Y-674999D01*
X-552605Y-674999D01*
X-626999Y-600605D01*
X-626999Y-495395D01*
X-552605Y-421001D01*
G37*
G36*
X-552605Y-675001D02*
X-447395Y-675001D01*
X-373001Y-749395D01*
X-373001Y-854605D01*
X-447395Y-928999D01*
X-552605Y-928999D01*
X-626999Y-854605D01*
X-626999Y-749395D01*
X-552605Y-675001D01*
G37*
G36*
X-552605Y-929001D02*
X-447395Y-929001D01*
X-373001Y-1003395D01*
X-373001Y-1108605D01*
X-447395Y-1182999D01*
X-552605Y-1182999D01*
X-626999Y-1108605D01*
X-626999Y-1003395D01*
X-552605Y-929001D01*
G37*
G36*
X+1076605Y-2452999D02*
X+971395Y-2452999D01*
X+897001Y-2378605D01*
X+897001Y-2273395D01*
X+971395Y-2199001D01*
X+1076605Y-2199001D01*
X+1150999Y-2273395D01*
X+1150999Y-2378605D01*
X+1076605Y-2452999D01*
G37*
G36*
X+1150999Y-241395D02*
X+1150999Y-338180D01*
X+3000628Y-338180D01*
X+3195064Y-532616D01*
X+3195064Y-718651D01*
X+2893699Y-1020016D01*
X+2893699Y-1244582D01*
X+3223899Y-1574782D01*
X+3223899Y-2139717D01*
X+2941217Y-2422399D01*
X+1410274Y-2422399D01*
X+1131740Y-2143864D01*
X+1076605Y-2198999D01*
X+971395Y-2198999D01*
X+897001Y-2124605D01*
X+897001Y-2021346D01*
X+868994Y-2021346D01*
X+730023Y-1882375D01*
X+730023Y-1224255D01*
X+897001Y-1057277D01*
X+897001Y-1003395D01*
X+971395Y-929001D01*
X+1076605Y-929001D01*
X+1150999Y-1003395D01*
X+1150999Y-1108605D01*
X+1076605Y-1182999D01*
X+1022723Y-1182999D01*
X+1022721Y-1183001D01*
X+1076605Y-1183001D01*
X+1150999Y-1257395D01*
X+1150999Y-1362605D01*
X+1076605Y-1436999D01*
X+971395Y-1436999D01*
X+907821Y-1373425D01*
X+907821Y-1500575D01*
X+971395Y-1437001D01*
X+1076605Y-1437001D01*
X+1150999Y-1511395D01*
X+1150999Y-1565277D01*
X+1696183Y-2110461D01*
X+2838916Y-2110461D01*
X+2907077Y-2042300D01*
X+2907077Y-1747722D01*
X+2893699Y-1734344D01*
X+2893699Y-1901699D01*
X+2360301Y-1901699D01*
X+2360301Y-606301D01*
X+2893699Y-606301D01*
X+2893699Y-768572D01*
X+3017266Y-645005D01*
X+3017266Y-606262D01*
X+2926982Y-515978D01*
X+1181744Y-515978D01*
X+1150999Y-546723D01*
X+1150999Y-600605D01*
X+1076605Y-674999D01*
X+971395Y-674999D01*
X+897001Y-600605D01*
X+897001Y-495395D01*
X+971395Y-421001D01*
X+1025277Y-421001D01*
X+1025279Y-420999D01*
X+971395Y-420999D01*
X+897001Y-346605D01*
X+897001Y-241395D01*
X+971395Y-167001D01*
X+1076605Y-167001D01*
X+1150999Y-241395D01*
G37*
G36*
X+1076605Y-928999D02*
X+971395Y-928999D01*
X+897001Y-854605D01*
X+897001Y-749395D01*
X+971395Y-675001D01*
X+1076605Y-675001D01*
X+1150999Y-749395D01*
X+1150999Y-854605D01*
X+1076605Y-928999D01*
G37*
G36*
X+1076605Y-166999D02*
X+971395Y-166999D01*
X+897001Y-92605D01*
X+897001Y+12605D01*
X+971395Y+86999D01*
X+1076605Y+86999D01*
X+1150999Y+12605D01*
X+1150999Y-92605D01*
X+1076605Y-166999D01*
G37*
G36*
X+1076605Y+87001D02*
X+971395Y+87001D01*
X+897001Y+161395D01*
X+897001Y+266605D01*
X+971395Y+340999D01*
X+1076605Y+340999D01*
X+1150999Y+266605D01*
X+1150999Y+161395D01*
X+1076605Y+87001D01*
G37*
G36*
X+1076605Y+341001D02*
X+971395Y+341001D01*
X+897001Y+415395D01*
X+897001Y+520605D01*
X+971395Y+594999D01*
X+1076605Y+594999D01*
X+1150999Y+520605D01*
X+1150999Y+415395D01*
X+1076605Y+341001D01*
G37*
G36*
X+2928704Y+3539502D02*
X+3169022Y+3299184D01*
X+3169022Y+2739489D01*
X+2893699Y+2464166D01*
X+2893699Y+2264712D01*
X+3006496Y+2151915D01*
X+3006496Y+1817489D01*
X+2709288Y+1520281D01*
X+1948003Y+1520281D01*
X+1150999Y+723277D01*
X+1150999Y+669395D01*
X+1076605Y+595001D01*
X+971395Y+595001D01*
X+897001Y+669395D01*
X+897001Y+774605D01*
X+971395Y+848999D01*
X+1025277Y+848999D01*
X+1025279Y+849001D01*
X+971395Y+849001D01*
X+897001Y+923395D01*
X+897001Y+1028605D01*
X+971395Y+1102999D01*
X+1076605Y+1102999D01*
X+1150999Y+1028605D01*
X+1150999Y+974721D01*
X+1874355Y+1698077D01*
X+2635640Y+1698077D01*
X+2781864Y+1844301D01*
X+2360301Y+1844301D01*
X+2360301Y+3134797D01*
X+2038519Y+3134797D01*
X+1150999Y+2247277D01*
X+1150999Y+2193395D01*
X+1076605Y+2119001D01*
X+971395Y+2119001D01*
X+941471Y+2148925D01*
X+941471Y+2089075D01*
X+971395Y+2118999D01*
X+1076605Y+2118999D01*
X+1150999Y+2044605D01*
X+1150999Y+1939395D01*
X+1076605Y+1865001D01*
X+972916Y+1865001D01*
X+972918Y+1864999D01*
X+1076605Y+1864999D01*
X+1150999Y+1790605D01*
X+1150999Y+1685395D01*
X+1076605Y+1611001D01*
X+971395Y+1611001D01*
X+897001Y+1685395D01*
X+897001Y+1689472D01*
X+848529Y+1737944D01*
X+848529Y+1459515D01*
X+961220Y+1346824D01*
X+971395Y+1356999D01*
X+1076605Y+1356999D01*
X+1150999Y+1282605D01*
X+1150999Y+1177395D01*
X+1076605Y+1103001D01*
X+971395Y+1103001D01*
X+933295Y+1141101D01*
X+915499Y+1141101D01*
X+670731Y+1385869D01*
X+670731Y+2551818D01*
X+1684453Y+3565540D01*
X+2902666Y+3565540D01*
X+2928704Y+3539502D01*
G37*
G36*
X+1076605Y+1357001D02*
X+971395Y+1357001D01*
X+897001Y+1431395D01*
X+897001Y+1536605D01*
X+971395Y+1610999D01*
X+1076605Y+1610999D01*
X+1150999Y+1536605D01*
X+1150999Y+1431395D01*
X+1076605Y+1357001D01*
G37*
G36*
X-1369001Y+2376999D02*
X-1369001Y+2123001D01*
X-1622999Y+2123001D01*
X-1622999Y+2376999D01*
X-1369001Y+2376999D01*
G37*
G36*
X-1115001Y+2630999D02*
X-1115001Y+2377001D01*
X-1368999Y+2377001D01*
X-1368999Y+2630999D01*
X-1115001Y+2630999D01*
G37*
G36*
X-1115001Y+2884999D02*
X-1115001Y+2631001D01*
X-1368999Y+2631001D01*
X-1368999Y+2884999D01*
X-1115001Y+2884999D01*
G37*
G36*
X-2376301Y+807865D02*
X-2376301Y+692135D01*
X-2458135Y+610301D01*
X-2573865Y+610301D01*
X-2655699Y+692135D01*
X-2655699Y+807865D01*
X-2573865Y+889699D01*
X-2458135Y+889699D01*
X-2376301Y+807865D01*
G37*
G36*
X-2658749Y+1159451D02*
X-2658749Y+1476949D01*
X-2341251Y+1476949D01*
X-2341251Y+1159451D01*
X-2658749Y+1159451D01*
G37*
G36*
X-2658749Y+1591251D02*
X-2658749Y+1908749D01*
X-2341251Y+1908749D01*
X-2341251Y+1591251D01*
X-2658749Y+1591251D01*
G37*
G36*
X+2889699Y+860301D02*
X+2889699Y+352301D01*
X+2610301Y+352301D01*
X+2610301Y+1139699D01*
X+2889699Y+1139699D01*
X+2889699Y+860301D01*
G37*
G36*
X-2626999Y+2627001D02*
X-2626999Y+2880999D01*
X-2373001Y+2880999D01*
X-2373001Y+2627001D01*
X-2626999Y+2627001D01*
G37*
%LPD*%
G36*
X-1517267Y+3138999D02*
X-1525436Y+3138999D01*
X-1444690Y+3219745D01*
X-1436521Y+3219745D01*
X-1517267Y+3138999D01*
G37*
G36*
X-269218Y+3163256D02*
X-269218Y+3046337D01*
X-526332Y+3303451D01*
X-409413Y+3303451D01*
X-269218Y+3163256D01*
G37*
G36*
X-1622999Y+2957650D02*
X-1664892Y+2999543D01*
X-1622999Y+3041436D01*
X-1622999Y+2957650D01*
G37*
G36*
X-396728Y+2922403D02*
X-396728Y+2626999D01*
X-411101Y+2626999D01*
X-411101Y+2936776D01*
X-396728Y+2922403D01*
G37*
G36*
X+971395Y-1690999D02*
X+1025277Y-1690999D01*
X+1025279Y-1691001D01*
X+971395Y-1691001D01*
X+907821Y-1754575D01*
X+907821Y-1627425D01*
X+971395Y-1690999D01*
G37*
G36*
X+1578879Y-2244601D02*
X+1483920Y-2244601D01*
X+1130462Y-1891142D01*
X+1150999Y-1870605D01*
X+1150999Y-1816721D01*
X+1578879Y-2244601D01*
G37*
G36*
X+2911101Y+3171790D02*
X+2911101Y+3001219D01*
X+2893699Y+2983817D01*
X+2893699Y+3139699D01*
X+2842899Y+3139699D01*
X+2842899Y+3201375D01*
X+2752687Y+3291587D01*
X+2791304Y+3291587D01*
X+2911101Y+3171790D01*
G37*
G36*
X+2991224Y+2813135D02*
X+2893699Y+2715610D01*
X+2893699Y+2732373D01*
X+2991224Y+2829898D01*
X+2991224Y+2813135D01*
G37*
G36*
X+1938835Y+3286557D02*
X+1150999Y+2498721D01*
X+1150999Y+2552605D01*
X+1093638Y+2609966D01*
X+1775258Y+3291587D01*
X+1943865Y+3291587D01*
X+1938835Y+3286557D01*
G37*
G36*
X+971395Y+2373001D02*
X+1025279Y+2373001D01*
X+1025277Y+2372999D01*
X+971395Y+2372999D01*
X+941471Y+2343075D01*
X+941471Y+2402925D01*
X+971395Y+2373001D01*
G37*
G36*
X-365816Y+987214D02*
X-365816Y+305726D01*
X-388969Y+282573D01*
X-447395Y+340999D01*
X-552605Y+340999D01*
X-626999Y+266605D01*
X-626999Y+161395D01*
X-606511Y+140907D01*
X-658519Y+88899D01*
X-1856301Y+88899D01*
X-1856301Y+326099D01*
X-770179Y+326099D01*
X-626999Y+469279D01*
X-626999Y+415395D01*
X-552605Y+341001D01*
X-447395Y+341001D01*
X-373001Y+415395D01*
X-373001Y+520605D01*
X-447395Y+594999D01*
X-501279Y+594999D01*
X-501277Y+595001D01*
X-447395Y+595001D01*
X-373001Y+669395D01*
X-373001Y+774605D01*
X-411101Y+812705D01*
X-411101Y+845250D01*
X-431124Y+865272D01*
X-373001Y+923395D01*
X-373001Y+994399D01*
X-365816Y+987214D01*
G37*
G36*
X-2389699Y+119938D02*
X-2497935Y+228174D01*
X-2497935Y+287650D01*
X-2459486Y+326099D01*
X-2389699Y+326099D01*
X-2389699Y+119938D01*
G37*
G36*
X-470689Y-1945001D02*
X-501279Y-1945001D01*
X-501277Y-1944999D01*
X-470689Y-1944999D01*
X-470689Y-1945001D01*
G37*
G36*
X-1368226Y-1001260D02*
X-1283950Y-1001260D01*
X-1283950Y-2063192D01*
X-1356301Y-2135543D01*
X-1356301Y-1106301D01*
X-1512116Y-1106301D01*
X-1387650Y-981836D01*
X-1368226Y-1001260D01*
G37*
G36*
X-1889699Y-2147699D02*
X-1889699Y-2274202D01*
X-1947952Y-2215949D01*
X-1947952Y-2050992D01*
X-1889699Y-1992739D01*
X-1889699Y-2147699D01*
G37*
G36*
X-626999Y-2124605D02*
X-552605Y-2198999D01*
X-470689Y-2198999D01*
X-470689Y-2199001D01*
X-552605Y-2199001D01*
X-626999Y-2273395D01*
X-626999Y-2378605D01*
X-569648Y-2435956D01*
X-657239Y-2523548D01*
X-1794064Y-2523548D01*
X-1810489Y-2507123D01*
X-1063401Y-2507123D01*
X-626999Y-2070721D01*
X-626999Y-2124605D01*
G37*
D10*
X+2754000Y-1000000D02*
X+2787993Y-1000000D01*
X+3106165Y-681828D01*
X+3106165Y-569439D01*
X+2963805Y-427079D01*
X+1144921Y-427079D01*
X+1024000Y-548000D01*
X+2754000Y-1508000D02*
X+2793077Y-1508000D01*
X+2995976Y-1710899D01*
X+2995976Y-2079123D01*
X+2875739Y-2199360D01*
X+1659360Y-2199360D01*
X+1024000Y-1564000D01*
X+2754000Y-1254000D02*
X+2777395Y-1254000D01*
X+3135000Y-1611605D01*
X+3135000Y-2102894D01*
X+2904394Y-2333500D01*
X+1447097Y-2333500D01*
X+1046044Y-1932447D01*
X+905817Y-1932447D01*
X+818922Y-1845552D01*
X+818922Y-1261078D01*
X+1024000Y-1056000D01*
X+2754000Y+2238000D02*
X+2794689Y+2238000D01*
X+2917597Y+2115092D01*
X+2917597Y+1854312D01*
X+2672464Y+1609179D01*
X+1911179Y+1609179D01*
X+1024000Y+722000D01*
X+2754000Y+3000000D02*
X+2754000Y+3164552D01*
X+2694856Y+3223696D01*
X+2001696Y+3223696D01*
X+1024000Y+2246000D01*
X+2754000Y+2746000D02*
X+2781604Y+2746000D01*
X+3000000Y+2964396D01*
X+3000000Y+3208613D01*
X+2828127Y+3380486D01*
X+1738435Y+3380486D01*
X+852572Y+2494623D01*
X+852572Y+1859623D01*
X+974195Y+1738000D01*
X+1024000Y+1738000D01*
X+2754000Y+2492000D02*
X+2795811Y+2492000D01*
X+3080123Y+2776312D01*
X+3080123Y+3262361D01*
X+2865843Y+3476641D01*
X+1721276Y+3476641D01*
X+759630Y+2514995D01*
X+759630Y+1422692D01*
X+952322Y+1230000D01*
X+1024000Y+1230000D01*
X-500000Y+2500000D02*
X-500000Y+2973122D01*
X-723122Y+3196244D01*
X-1334300Y+3196244D01*
X-1496000Y+3034544D01*
X-1496000Y+3012000D01*
X-500000Y+1992000D02*
X-307829Y+2184171D01*
X-307829Y+2762118D01*
X-307829Y+2959226D01*
X-657247Y+3308644D01*
X-1481513Y+3308644D01*
X-1759256Y+3030901D01*
X-1759256Y+2968185D01*
X-1549071Y+2758000D01*
X-1496000Y+2758000D01*
X-500000Y+1484000D02*
X-180319Y+1803681D01*
X-180319Y+3200079D01*
X-372590Y+3392350D01*
X-1516095Y+3392350D01*
X-1835380Y+3073065D01*
X-1835380Y+2806619D01*
X-1532761Y+2504000D01*
X-1496000Y+2504000D01*
X-500000Y-1818000D02*
X-1100224Y-2418224D01*
X-1871399Y-2418224D01*
X-2036851Y-2252772D01*
X-2036851Y-2243580D01*
X-2036851Y-2014169D01*
X-1776682Y-1754000D01*
X-1750000Y-1754000D01*
X-500000Y-1310000D02*
X-381790Y-1428210D01*
X-381790Y-2373821D01*
X-620416Y-2612447D01*
X-646875Y-2612447D01*
X-1830887Y-2612447D01*
X-2115312Y-2328022D01*
X-2115312Y-1842132D01*
X-1773180Y-1500000D01*
X-1750000Y-1500000D01*
X-1750000Y-1246000D02*
X-1750000Y-1218463D01*
X-1405798Y-874261D01*
X-1315621Y-874261D01*
X-2250000Y+0D02*
X-2395483Y+0D01*
X-2586834Y+191351D01*
X-2586834Y+324473D01*
X-2496310Y+414997D01*
X-807003Y+414997D01*
X-500000Y+722000D01*
X-1996000Y+0D02*
X-621696Y+0D01*
X-547386Y+74310D01*
X-471510Y+74310D01*
X-276917Y+268903D01*
X-276917Y+1024037D01*
X-482880Y+1230000D01*
X-500000Y+1230000D01*
X-1496000Y-2262000D02*
X-1357036Y-2262000D01*
X-1195051Y-2100015D01*
X-1195051Y-506605D01*
X-1566962Y-134694D01*
X-500000Y+722000D02*
X-500000Y+808427D01*
X-994928Y+1303355D01*
X-994928Y+2023914D01*
X-1221014Y+2250000D01*
X-1242000Y+2250000D01*
X-1242000Y+1996000D02*
X-1242000Y+1960014D01*
X-1242000Y+1008000D01*
X-1500000Y+750000D01*
X-2500000Y+2500000D02*
X-2000000Y+2000000D01*
X-1724609Y+1724609D01*
X-1685243Y+1724609D01*
X-2000000Y+2496000D02*
X-2000000Y+2000000D01*
X-2000000Y+1881617D01*
X-1917533Y+1799150D01*
X-1842992Y+1724609D01*
X-1724609Y+1724609D01*
X-1685243Y+1724609D02*
X-1477405Y+1724609D01*
X-1242000Y+1960014D01*
D11*
X-1315621Y-874261D03*
X-1566962Y-134694D03*
D10*
X+3426340Y-2676340D02*
X-558587Y-2676340D01*
X-292891Y-2410644D01*
X-292891Y-1391387D01*
X-373001Y-1311277D01*
X-373001Y-1257395D01*
X-447395Y-1183001D01*
X-552605Y-1183001D01*
X-626999Y-1257395D01*
X-626999Y-1362605D01*
X-552605Y-1436999D01*
X-498723Y-1436999D01*
X-498721Y-1437001D01*
X-552605Y-1437001D01*
X-626999Y-1511395D01*
X-626999Y-1616605D01*
X-552605Y-1690999D01*
X-470689Y-1690999D01*
X-470689Y-1691001D01*
X-552605Y-1691001D01*
X-626999Y-1765395D01*
X-626999Y-1819277D01*
X-1137047Y-2329325D01*
X-1298639Y-2329325D01*
X-1106152Y-2136838D01*
X-1106152Y-469782D01*
X-1439963Y-135971D01*
X-1439963Y-88899D01*
X-626999Y-88899D01*
X-626999Y-92605D01*
X-552605Y-166999D01*
X-447395Y-166999D01*
X-373001Y-92605D01*
X-373001Y+12605D01*
X-390247Y+29851D01*
X-188018Y+232080D01*
X-188018Y+1060860D01*
X-373001Y+1245843D01*
X-373001Y+1282605D01*
X-447395Y+1356999D01*
X-552605Y+1356999D01*
X-626999Y+1282605D01*
X-626999Y+1177395D01*
X-552605Y+1103001D01*
X-481603Y+1103001D01*
X-481601Y+1102999D01*
X-552605Y+1102999D01*
X-610728Y+1044876D01*
X-906029Y+1340178D01*
X-906029Y+2060737D01*
X-1115001Y+2269709D01*
X-1115001Y+2376999D01*
X-1368999Y+2376999D01*
X-1368999Y+2123001D01*
X-1219737Y+2123001D01*
X-1219735Y+2122999D01*
X-1368999Y+2122999D01*
X-1368999Y+1958737D01*
X-1369001Y+1958735D01*
X-1369001Y+2122999D01*
X-1622999Y+2122999D01*
X-1622999Y+1869001D01*
X-1458735Y+1869001D01*
X-1514228Y+1813508D01*
X-1687786Y+1813508D01*
X-1911101Y+2036823D01*
X-1911101Y+2369001D01*
X-1873001Y+2369001D01*
X-1873001Y+2622999D01*
X-2126999Y+2622999D01*
X-2126999Y+2369001D01*
X-2088899Y+2369001D01*
X-2088899Y+2214621D01*
X-2373001Y+2498723D01*
X-2373001Y+2626999D01*
X-2626999Y+2626999D01*
X-2626999Y+2373001D01*
X-2498723Y+2373001D01*
X-2088899Y+1963177D01*
X-2088899Y+1844794D01*
X-1881934Y+1637830D01*
X-1889699Y+1630065D01*
X-1889699Y+1514335D01*
X-1820564Y+1445200D01*
X-1889699Y+1376065D01*
X-1889699Y+1260335D01*
X-1807865Y+1178501D01*
X-1692135Y+1178501D01*
X-1610301Y+1260335D01*
X-1610301Y+1376065D01*
X-1679436Y+1445200D01*
X-1610301Y+1514335D01*
X-1610301Y+1630065D01*
X-1615946Y+1635710D01*
X-1440582Y+1635710D01*
X-1330899Y+1745393D01*
X-1330899Y+1044823D01*
X-1486023Y+889699D01*
X-1557865Y+889699D01*
X-1639699Y+807865D01*
X-1639699Y+692135D01*
X-1557865Y+610301D01*
X-1442135Y+610301D01*
X-1360301Y+692135D01*
X-1360301Y+763977D01*
X-1153101Y+971177D01*
X-1153101Y+1869001D01*
X-1115001Y+1869001D01*
X-1115001Y+2018265D01*
X-1083827Y+1987091D01*
X-1083827Y+1266532D01*
X-609450Y+792154D01*
X-626999Y+774605D01*
X-626999Y+720723D01*
X-843827Y+503895D01*
X-2533134Y+503895D01*
X-2675733Y+361296D01*
X-2675733Y+154528D01*
X-2432306Y-88899D01*
X-2389699Y-88899D01*
X-2389699Y-901699D01*
X-1856301Y-901699D01*
X-1856301Y-88899D01*
X-1693961Y-88899D01*
X-1693961Y-187299D01*
X-1619567Y-261693D01*
X-1565685Y-261693D01*
X-1283950Y-543428D01*
X-1283950Y-747262D01*
X-1368226Y-747262D01*
X-1406326Y-785362D01*
X-1442621Y-785362D01*
X-1763560Y-1106301D01*
X-1889699Y-1106301D01*
X-1889699Y-1490797D01*
X-2204211Y-1805309D01*
X-2204211Y-2364845D01*
X-1892716Y-2676340D01*
X-3176340Y-2676340D01*
X-3176340Y+3676340D01*
X+3426340Y+3676340D01*
X+3426340Y-2676340D01*
X-309729Y+3455211D02*
X-91420Y+3236902D01*
X-91420Y+1766858D01*
X-373001Y+1485277D01*
X-373001Y+1431395D01*
X-447395Y+1357001D01*
X-552605Y+1357001D01*
X-626999Y+1431395D01*
X-626999Y+1536605D01*
X-552605Y+1610999D01*
X-498723Y+1610999D01*
X-498721Y+1611001D01*
X-552605Y+1611001D01*
X-626999Y+1685395D01*
X-626999Y+1790605D01*
X-552605Y+1864999D01*
X-447395Y+1864999D01*
X-373001Y+1790605D01*
X-373001Y+1736721D01*
X-269218Y+1840504D01*
X-269218Y+2097060D01*
X-373001Y+1993277D01*
X-373001Y+1939395D01*
X-447395Y+1865001D01*
X-552605Y+1865001D01*
X-626999Y+1939395D01*
X-626999Y+2044605D01*
X-552605Y+2118999D01*
X-498723Y+2118999D01*
X-498721Y+2119001D01*
X-552605Y+2119001D01*
X-626999Y+2193395D01*
X-626999Y+2298605D01*
X-552605Y+2372999D01*
X-447395Y+2372999D01*
X-396728Y+2322332D01*
X-396728Y+2373001D01*
X-626999Y+2373001D01*
X-626999Y+2626999D01*
X-588899Y+2626999D01*
X-588899Y+2936299D01*
X-759945Y+3107345D01*
X-1115001Y+3107345D01*
X-1115001Y+2885001D01*
X-1368999Y+2885001D01*
X-1368999Y+3035823D01*
X-1369001Y+3035821D01*
X-1369001Y+2885001D01*
X-1550350Y+2885001D01*
X-1550348Y+2884999D01*
X-1369001Y+2884999D01*
X-1369001Y+2631001D01*
X-1534040Y+2631001D01*
X-1534038Y+2630999D01*
X-1369001Y+2630999D01*
X-1369001Y+2377001D01*
X-1622999Y+2377001D01*
X-1622999Y+2468516D01*
X-1873001Y+2718518D01*
X-1873001Y+2623001D01*
X-2126999Y+2623001D01*
X-2126999Y+2876999D01*
X-1924279Y+2876999D01*
X-1924279Y+3109888D01*
X-1552918Y+3481249D01*
X-335767Y+3481249D01*
X-309729Y+3455211D01*
X-552605Y-167001D02*
X-447395Y-167001D01*
X-373001Y-241395D01*
X-373001Y-346605D01*
X-447395Y-420999D01*
X-552605Y-420999D01*
X-626999Y-346605D01*
X-626999Y-241395D01*
X-552605Y-167001D01*
X-552605Y-421001D02*
X-447395Y-421001D01*
X-373001Y-495395D01*
X-373001Y-600605D01*
X-447395Y-674999D01*
X-552605Y-674999D01*
X-626999Y-600605D01*
X-626999Y-495395D01*
X-552605Y-421001D01*
X-552605Y-675001D02*
X-447395Y-675001D01*
X-373001Y-749395D01*
X-373001Y-854605D01*
X-447395Y-928999D01*
X-552605Y-928999D01*
X-626999Y-854605D01*
X-626999Y-749395D01*
X-552605Y-675001D01*
X-552605Y-929001D02*
X-447395Y-929001D01*
X-373001Y-1003395D01*
X-373001Y-1108605D01*
X-447395Y-1182999D01*
X-552605Y-1182999D01*
X-626999Y-1108605D01*
X-626999Y-1003395D01*
X-552605Y-929001D01*
X+1076605Y-2452999D02*
X+971395Y-2452999D01*
X+897001Y-2378605D01*
X+897001Y-2273395D01*
X+971395Y-2199001D01*
X+1076605Y-2199001D01*
X+1150999Y-2273395D01*
X+1150999Y-2378605D01*
X+1076605Y-2452999D01*
X+1150999Y-241395D02*
X+1150999Y-338180D01*
X+3000628Y-338180D01*
X+3195064Y-532616D01*
X+3195064Y-718651D01*
X+2893699Y-1020016D01*
X+2893699Y-1244582D01*
X+3223899Y-1574782D01*
X+3223899Y-2139717D01*
X+2941217Y-2422399D01*
X+1410274Y-2422399D01*
X+1131740Y-2143864D01*
X+1076605Y-2198999D01*
X+971395Y-2198999D01*
X+897001Y-2124605D01*
X+897001Y-2021346D01*
X+868994Y-2021346D01*
X+730023Y-1882375D01*
X+730023Y-1224255D01*
X+897001Y-1057277D01*
X+897001Y-1003395D01*
X+971395Y-929001D01*
X+1076605Y-929001D01*
X+1150999Y-1003395D01*
X+1150999Y-1108605D01*
X+1076605Y-1182999D01*
X+1022723Y-1182999D01*
X+1022721Y-1183001D01*
X+1076605Y-1183001D01*
X+1150999Y-1257395D01*
X+1150999Y-1362605D01*
X+1076605Y-1436999D01*
X+971395Y-1436999D01*
X+907821Y-1373425D01*
X+907821Y-1500575D01*
X+971395Y-1437001D01*
X+1076605Y-1437001D01*
X+1150999Y-1511395D01*
X+1150999Y-1565277D01*
X+1696183Y-2110461D01*
X+2838916Y-2110461D01*
X+2907077Y-2042300D01*
X+2907077Y-1747722D01*
X+2893699Y-1734344D01*
X+2893699Y-1901699D01*
X+2360301Y-1901699D01*
X+2360301Y-606301D01*
X+2893699Y-606301D01*
X+2893699Y-768572D01*
X+3017266Y-645005D01*
X+3017266Y-606262D01*
X+2926982Y-515978D01*
X+1181744Y-515978D01*
X+1150999Y-546723D01*
X+1150999Y-600605D01*
X+1076605Y-674999D01*
X+971395Y-674999D01*
X+897001Y-600605D01*
X+897001Y-495395D01*
X+971395Y-421001D01*
X+1025277Y-421001D01*
X+1025279Y-420999D01*
X+971395Y-420999D01*
X+897001Y-346605D01*
X+897001Y-241395D01*
X+971395Y-167001D01*
X+1076605Y-167001D01*
X+1150999Y-241395D01*
X+1076605Y-928999D02*
X+971395Y-928999D01*
X+897001Y-854605D01*
X+897001Y-749395D01*
X+971395Y-675001D01*
X+1076605Y-675001D01*
X+1150999Y-749395D01*
X+1150999Y-854605D01*
X+1076605Y-928999D01*
X+1076605Y-166999D02*
X+971395Y-166999D01*
X+897001Y-92605D01*
X+897001Y+12605D01*
X+971395Y+86999D01*
X+1076605Y+86999D01*
X+1150999Y+12605D01*
X+1150999Y-92605D01*
X+1076605Y-166999D01*
X+1076605Y+87001D02*
X+971395Y+87001D01*
X+897001Y+161395D01*
X+897001Y+266605D01*
X+971395Y+340999D01*
X+1076605Y+340999D01*
X+1150999Y+266605D01*
X+1150999Y+161395D01*
X+1076605Y+87001D01*
X+1076605Y+341001D02*
X+971395Y+341001D01*
X+897001Y+415395D01*
X+897001Y+520605D01*
X+971395Y+594999D01*
X+1076605Y+594999D01*
X+1150999Y+520605D01*
X+1150999Y+415395D01*
X+1076605Y+341001D01*
X+2928704Y+3539502D02*
X+3169022Y+3299184D01*
X+3169022Y+2739489D01*
X+2893699Y+2464166D01*
X+2893699Y+2264712D01*
X+3006496Y+2151915D01*
X+3006496Y+1817489D01*
X+2709288Y+1520281D01*
X+1948003Y+1520281D01*
X+1150999Y+723277D01*
X+1150999Y+669395D01*
X+1076605Y+595001D01*
X+971395Y+595001D01*
X+897001Y+669395D01*
X+897001Y+774605D01*
X+971395Y+848999D01*
X+1025277Y+848999D01*
X+1025279Y+849001D01*
X+971395Y+849001D01*
X+897001Y+923395D01*
X+897001Y+1028605D01*
X+971395Y+1102999D01*
X+1076605Y+1102999D01*
X+1150999Y+1028605D01*
X+1150999Y+974721D01*
X+1874355Y+1698077D01*
X+2635640Y+1698077D01*
X+2781864Y+1844301D01*
X+2360301Y+1844301D01*
X+2360301Y+3134797D01*
X+2038519Y+3134797D01*
X+1150999Y+2247277D01*
X+1150999Y+2193395D01*
X+1076605Y+2119001D01*
X+971395Y+2119001D01*
X+941471Y+2148925D01*
X+941471Y+2089075D01*
X+971395Y+2118999D01*
X+1076605Y+2118999D01*
X+1150999Y+2044605D01*
X+1150999Y+1939395D01*
X+1076605Y+1865001D01*
X+972916Y+1865001D01*
X+972918Y+1864999D01*
X+1076605Y+1864999D01*
X+1150999Y+1790605D01*
X+1150999Y+1685395D01*
X+1076605Y+1611001D01*
X+971395Y+1611001D01*
X+897001Y+1685395D01*
X+897001Y+1689472D01*
X+848529Y+1737944D01*
X+848529Y+1459515D01*
X+961220Y+1346824D01*
X+971395Y+1356999D01*
X+1076605Y+1356999D01*
X+1150999Y+1282605D01*
X+1150999Y+1177395D01*
X+1076605Y+1103001D01*
X+971395Y+1103001D01*
X+933295Y+1141101D01*
X+915499Y+1141101D01*
X+670731Y+1385869D01*
X+670731Y+2551818D01*
X+1684453Y+3565540D01*
X+2902666Y+3565540D01*
X+2928704Y+3539502D01*
X+1076605Y+1357001D02*
X+971395Y+1357001D01*
X+897001Y+1431395D01*
X+897001Y+1536605D01*
X+971395Y+1610999D01*
X+1076605Y+1610999D01*
X+1150999Y+1536605D01*
X+1150999Y+1431395D01*
X+1076605Y+1357001D01*
X-1369001Y+2376999D02*
X-1369001Y+2123001D01*
X-1622999Y+2123001D01*
X-1622999Y+2376999D01*
X-1369001Y+2376999D01*
X-1115001Y+2630999D02*
X-1115001Y+2377001D01*
X-1368999Y+2377001D01*
X-1368999Y+2630999D01*
X-1115001Y+2630999D01*
X-1115001Y+2884999D02*
X-1115001Y+2631001D01*
X-1368999Y+2631001D01*
X-1368999Y+2884999D01*
X-1115001Y+2884999D01*
X-2376301Y+807865D02*
X-2376301Y+692135D01*
X-2458135Y+610301D01*
X-2573865Y+610301D01*
X-2655699Y+692135D01*
X-2655699Y+807865D01*
X-2573865Y+889699D01*
X-2458135Y+889699D01*
X-2376301Y+807865D01*
X-2658749Y+1159451D02*
X-2658749Y+1476949D01*
X-2341251Y+1476949D01*
X-2341251Y+1159451D01*
X-2658749Y+1159451D01*
X-2658749Y+1591251D02*
X-2658749Y+1908749D01*
X-2341251Y+1908749D01*
X-2341251Y+1591251D01*
X-2658749Y+1591251D01*
X+2889699Y+860301D02*
X+2889699Y+352301D01*
X+2610301Y+352301D01*
X+2610301Y+1139699D01*
X+2889699Y+1139699D01*
X+2889699Y+860301D01*
X-2626999Y+2627001D02*
X-2626999Y+2880999D01*
X-2373001Y+2880999D01*
X-2373001Y+2627001D01*
X-2626999Y+2627001D01*
X-1517267Y+3138999D02*
X-1525436Y+3138999D01*
X-1444690Y+3219745D01*
X-1436521Y+3219745D01*
X-1517267Y+3138999D01*
X-269218Y+3163256D02*
X-269218Y+3046337D01*
X-526332Y+3303451D01*
X-409413Y+3303451D01*
X-269218Y+3163256D01*
X-1622999Y+2957650D02*
X-1664892Y+2999543D01*
X-1622999Y+3041436D01*
X-1622999Y+2957650D01*
X-396728Y+2922403D02*
X-396728Y+2626999D01*
X-411101Y+2626999D01*
X-411101Y+2936776D01*
X-396728Y+2922403D01*
X-365816Y+987214D02*
X-365816Y+305726D01*
X-388969Y+282573D01*
X-447395Y+340999D01*
X-552605Y+340999D01*
X-626999Y+266605D01*
X-626999Y+161395D01*
X-606511Y+140907D01*
X-658519Y+88899D01*
X-1856301Y+88899D01*
X-1856301Y+326099D01*
X-770179Y+326099D01*
X-626999Y+469279D01*
X-626999Y+415395D01*
X-552605Y+341001D01*
X-447395Y+341001D01*
X-373001Y+415395D01*
X-373001Y+520605D01*
X-447395Y+594999D01*
X-501279Y+594999D01*
X-501277Y+595001D01*
X-447395Y+595001D01*
X-373001Y+669395D01*
X-373001Y+774605D01*
X-411101Y+812705D01*
X-411101Y+845250D01*
X-431124Y+865272D01*
X-373001Y+923395D01*
X-373001Y+994399D01*
X-365816Y+987214D01*
X-2389699Y+119938D02*
X-2497935Y+228174D01*
X-2497935Y+287650D01*
X-2459486Y+326099D01*
X-2389699Y+326099D01*
X-2389699Y+119938D01*
X-470689Y-1945001D02*
X-501279Y-1945001D01*
X-501277Y-1944999D01*
X-470689Y-1944999D01*
X-470689Y-1945001D01*
X-1368226Y-1001260D02*
X-1283950Y-1001260D01*
X-1283950Y-2063192D01*
X-1356301Y-2135543D01*
X-1356301Y-1106301D01*
X-1512116Y-1106301D01*
X-1387650Y-981836D01*
X-1368226Y-1001260D01*
X-1889699Y-2147699D02*
X-1889699Y-2274202D01*
X-1947952Y-2215949D01*
X-1947952Y-2050992D01*
X-1889699Y-1992739D01*
X-1889699Y-2147699D01*
X-626999Y-2124605D02*
X-552605Y-2198999D01*
X-470689Y-2198999D01*
X-470689Y-2199001D01*
X-552605Y-2199001D01*
X-626999Y-2273395D01*
X-626999Y-2378605D01*
X-569648Y-2435956D01*
X-657239Y-2523548D01*
X-1794064Y-2523548D01*
X-1810489Y-2507123D01*
X-1063401Y-2507123D01*
X-626999Y-2070721D01*
X-626999Y-2124605D01*
X+971395Y-1690999D02*
X+1025277Y-1690999D01*
X+1025279Y-1691001D01*
X+971395Y-1691001D01*
X+907821Y-1754575D01*
X+907821Y-1627425D01*
X+971395Y-1690999D01*
X+1578879Y-2244601D02*
X+1483920Y-2244601D01*
X+1130462Y-1891142D01*
X+1150999Y-1870605D01*
X+1150999Y-1816721D01*
X+1578879Y-2244601D01*
X+2911101Y+3171790D02*
X+2911101Y+3001219D01*
X+2893699Y+2983817D01*
X+2893699Y+3139699D01*
X+2842899Y+3139699D01*
X+2842899Y+3201375D01*
X+2752687Y+3291587D01*
X+2791304Y+3291587D01*
X+2911101Y+3171790D01*
X+2991224Y+2813135D02*
X+2893699Y+2715610D01*
X+2893699Y+2732373D01*
X+2991224Y+2829898D01*
X+2991224Y+2813135D01*
X+1938835Y+3286557D02*
X+1150999Y+2498721D01*
X+1150999Y+2552605D01*
X+1093638Y+2609966D01*
X+1775258Y+3291587D01*
X+1943865Y+3291587D01*
X+1938835Y+3286557D01*
X+971395Y+2373001D02*
X+1025279Y+2373001D01*
X+1025277Y+2372999D01*
X+971395Y+2372999D01*
X+941471Y+2343075D01*
X+941471Y+2402925D01*
X+971395Y+2373001D01*
D12*
X-500000Y+2500000D03*
D11*
X-500000Y+2246000D03*
X-500000Y+1992000D03*
X-500000Y+1738000D03*
X-500000Y+1484000D03*
X-500000Y+1230000D03*
X-500000Y+976000D03*
X-500000Y+722000D03*
X-500000Y+468000D03*
X-500000Y+214000D03*
X-500000Y-40000D03*
X-500000Y-294000D03*
X-500000Y-548000D03*
X-500000Y-802000D03*
X-500000Y-1056000D03*
X-500000Y-1310000D03*
X-500000Y-1564000D03*
X-500000Y-1818000D03*
X-500000Y-2072000D03*
X-500000Y-2326000D03*
X+1024000Y-2326000D03*
X+1024000Y-2072000D03*
X+1024000Y-1818000D03*
X+1024000Y-1564000D03*
X+1024000Y-1310000D03*
X+1024000Y-1056000D03*
X+1024000Y-802000D03*
X+1024000Y-548000D03*
X+1024000Y-294000D03*
X+1024000Y-40000D03*
X+1024000Y+214000D03*
X+1024000Y+468000D03*
X+1024000Y+722000D03*
X+1024000Y+976000D03*
X+1024000Y+1230000D03*
X+1024000Y+1484000D03*
X+1024000Y+1738000D03*
X+1024000Y+1992000D03*
X+1024000Y+2246000D03*
X+1024000Y+2500000D03*
D12*
X-1496000Y+3012000D03*
X-1496000Y+2758000D03*
X-1496000Y+2504000D03*
X-1496000Y+2250000D03*
X-1496000Y+1996000D03*
X-1242000Y+1996000D03*
X-1242000Y+2250000D03*
X-1242000Y+2504000D03*
X-1242000Y+2758000D03*
X-1242000Y+3012000D03*
D13*
X-1750000Y-1246000D03*
X-1750000Y-1500000D03*
X-1750000Y-1754000D03*
X-1750000Y-2008000D03*
X-1750000Y-2262000D03*
X-1496000Y-2262000D03*
X-1496000Y-2008000D03*
X-1496000Y-1754000D03*
X-1496000Y-1500000D03*
X-1496000Y-1246000D03*
X+2500000Y+3000000D03*
X+2500000Y+2746000D03*
X+2500000Y+2492000D03*
X+2500000Y+2238000D03*
X+2500000Y+1984000D03*
X+2754000Y+1984000D03*
X+2754000Y+2238000D03*
X+2754000Y+2492000D03*
X+2754000Y+2746000D03*
X+2754000Y+3000000D03*
X+2754000Y-1762000D03*
X+2754000Y-1508000D03*
X+2754000Y-1254000D03*
X+2754000Y-1000000D03*
X+2754000Y-746000D03*
X+2500000Y-746000D03*
X+2500000Y-1000000D03*
X+2500000Y-1254000D03*
X+2500000Y-1508000D03*
X+2500000Y-1762000D03*
D14*
X-1500000Y+750000D03*
X-2516000Y+750000D03*
X-1750000Y+1318200D03*
X-1750000Y+1572200D03*
D15*
X-2500000Y+1318200D03*
X-2500000Y+1750000D03*
D13*
X-2250000Y+254000D03*
X-2250000Y+0D03*
X-2250000Y-254000D03*
X-2250000Y-508000D03*
X-2250000Y-762000D03*
X-1996000Y-762000D03*
X-1996000Y-508000D03*
X-1996000Y-254000D03*
X-1996000Y+0D03*
X-1996000Y+254000D03*
X+2750000Y+1000000D03*
X+2750000Y+746000D03*
X+2750000Y+492000D03*
D12*
X-2000000Y+2496000D03*
X-2000000Y+2750000D03*
X-2500000Y+2500000D03*
X-2500000Y+2754000D03*
D16*
X-3250000Y-2750000D02*
X+3500000Y-2750000D01*
X+3500000Y+3750000D01*
X-3250000Y+3750000D01*
X-3250000Y-2750000D01*
M02*
